<svg xmlns="http://www.w3.org/2000/svg" xmlns:xlink="http://www.w3.org/1999/xlink" width="1303" height="1080" viewBox="0 0 1303 1080">
  <defs>
    <clipPath id="clip-path">
      <rect id="Rectangle_38" data-name="Rectangle 38" width="1298.76" height="1080" fill="none"/>
    </clipPath>
    <clipPath id="clip-Koddezign_illustration">
      <rect width="1303" height="1080"/>
    </clipPath>
  </defs>
  <g id="Koddezign_illustration" clip-path="url(#clip-Koddezign_illustration)">
    <g id="Group_4" data-name="Group 4">
      <g id="Group_3" data-name="Group 3" clip-path="url(#clip-path)">
        <path id="Path_203" data-name="Path 203" d="M310.974,0c-.264,2.678.126,7.9-1.042,9.625,0,0,7.087,1.6,6.861.187A16.433,16.433,0,0,0,310.974,0" transform="translate(292.822)"/>
        <path id="Path_204" data-name="Path 204" d="M325.939.915c-2.978,3.495-9.837,6.428-10.292,9.823,0,0-7.215-3.59-5.432-4.806A28.314,28.314,0,0,1,325.939.915" transform="translate(292.822 0.86)"/>
        <path id="Path_205" data-name="Path 205" d="M564.606,789.419h22.254L558.778,288.394l-70.693,47.42Z" transform="translate(461.139 272.472)" fill="#fff"/>
        <path id="Path_206" data-name="Path 206" d="M588.4,791.245H564.3L487.538,336.208l.521-.348,72.109-48.371.1,1.7Zm-22.46-1.945h20.4l-27.929-498.3-68.754,46.119Z" transform="translate(460.623 271.618)"/>
        <path id="Path_207" data-name="Path 207" d="M515.334,787.5h-18.95l-63.69-497.081s92,29.884,90.987,52.951c-9.671,220.156-8.347,444.13-8.347,444.13" transform="translate(408.806 274.389)" fill="#fff"/>
        <path id="Path_208" data-name="Path 208" d="M516.878,789.154H496.092l-.109-.85L432.1,289.7l1.461.475c3.785,1.229,92.695,30.382,91.662,53.917-9.561,217.613-8.361,441.843-8.347,444.082Zm-19.073-1.945h17.116c-.076-16.4-.885-232.885,8.355-443.2.9-20.52-77.129-47.554-88.86-51.5Z" transform="translate(408.242 273.708)"/>
        <path id="Path_209" data-name="Path 209" d="M447.552,573.764a37.947,37.947,0,0,1,75.894,0" transform="translate(422.844 506.236)"/>
        <path id="Path_210" data-name="Path 210" d="M522.78,573.764a37.947,37.947,0,0,1,75.893,0" transform="translate(493.919 506.236)"/>
        <path id="Path_211" data-name="Path 211" d="M580.826,284.777c12.507,69.608-3.094,128.2-7.3,141.764,8.034,3.783,14.512,13.2,16.1,24.938,2.211,16.34-10.51,34.588-19.738,35.578-18.9,2.028-14.133-13.791-16.342-30.131-1.4-10.389,1.363-20.055,6.69-26.15.362-12.865-6.842-117.477-28.112-183.855-16.694-52.1-30.914-82.187-20.708-86.289,29.413-11.822,59.73,70.226,69.418,124.144" transform="translate(479.932 150.68)" fill="#fff"/>
        <path id="Path_212" data-name="Path 212" d="M567.285,488.677c-3.786,0-6.651-.877-8.713-2.655-4.181-3.6-4.454-10.261-4.767-17.97-.14-3.413-.282-6.941-.766-10.521-1.375-10.163,1.126-20.092,6.69-26.651.2-13.6-6.92-117.164-28.077-183.19-4.142-12.937-8.127-24.489-11.643-34.683-10.978-31.838-17.027-49.374-8.5-52.8,4.99-2.007,10.218-1.534,15.535,1.41,25.29,13.993,47.505,80.623,55.2,123.463,12.571,69.974-3.145,128.446-7.089,141.433,8.291,4.288,14.347,13.9,15.889,25.31,1.478,10.936-3.423,21.762-8.506,28.246-3.878,4.951-8.285,8.024-12.091,8.433a30.138,30.138,0,0,1-3.164.179M517.672,160.938a14.464,14.464,0,0,0-5.436,1.07c-6.813,2.738-.278,21.684,9.611,50.364,3.52,10.2,7.507,21.768,11.661,34.726,21.414,66.833,28.5,172.042,28.159,184.178l-.01.35-.229.263c-5.366,6.14-7.779,15.624-6.463,25.38.5,3.674.644,7.248.784,10.7.3,7.256.55,13.522,4.094,16.577,2.172,1.873,5.576,2.538,10.4,2.015,3.24-.348,7.268-3.228,10.77-7.7,4.839-6.173,9.508-16.451,8.11-26.786-1.478-10.945-7.581-20.44-15.549-24.187l-.764-.36.251-.809c3.454-11.126,20.045-70.23,7.276-141.3C572.7,242.958,550.836,177,526.1,163.315a17.348,17.348,0,0,0-8.433-2.377" transform="translate(479.467 150.207)" fill="#231f20"/>
        <path id="Path_213" data-name="Path 213" d="M409.068,297.3c-7.34,70.339,18.079,122.063,23.277,135.274-7.734,4.364-13.5,14.234-14.216,26.056-1,16.459,13.032,33.721,22.309,34.026,19,.628,13.077-14.794,14.076-31.253.634-10.465-2.839-19.9-8.6-25.586-1.309-12.8-14.347-122,14.481-185.426,22.636-49.8,24.771-84.243,14.29-87.582-30.206-9.621-59.931,80-65.617,134.49" transform="translate(385.238 153.149)" fill="#fff"/>
        <path id="Path_214" data-name="Path 214" d="M442,494.123c-.364,0-.735-.008-1.118-.019-3.825-.128-8.446-2.865-12.676-7.515-5.548-6.091-11.239-16.527-10.57-27.544.7-11.492,6.027-21.517,13.975-26.41-.424-1.04-.945-2.277-1.542-3.7-7.711-18.326-28.192-67.014-21.49-131.262C413.1,254.27,434,182.095,459.951,165.126c5.255-3.438,10.471-4.366,15.5-2.767,2.048.653,3.664,2.283,4.8,4.844,4.846,10.914,1.008,41.142-18.5,84.064-24.036,52.881-19.462,137.388-14.6,183.054l.161,1.527c6.035,6.132,9.261,15.852,8.641,26.089-.218,3.606-.1,7.137.012,10.55.255,7.709.475,14.368-3.431,18.273-2.256,2.256-5.712,3.363-10.543,3.363m28.641-330.574a17.584,17.584,0,0,0-9.623,3.2c-24.487,16.017-45.92,87.166-50.506,131.122-6.653,63.76,13.691,112.108,21.35,130.307.76,1.809,1.394,3.316,1.865,4.514l.309.786-.735.416c-7.668,4.325-13.053,14.244-13.724,25.267-.632,10.41,4.786,20.317,10.066,26.119,3.823,4.2,8.049,6.77,11.3,6.877,4.811.163,8.2-.747,10.222-2.773,3.308-3.308,3.1-9.578,2.861-16.834-.115-3.46-.231-7.034-.008-10.733.6-9.825-2.513-19.108-8.314-24.835l-.249-.245-.231-2.211c-4.887-45.864-9.467-130.762,14.759-184.065,19.259-42.371,23.168-71.952,18.495-82.469a6.287,6.287,0,0,0-3.613-3.781,13.837,13.837,0,0,0-4.226-.663" transform="translate(384.766 152.678)" fill="#231f20"/>
        <rect id="Rectangle_14" data-name="Rectangle 14" width="130.776" height="189.366" transform="translate(859.531 143.458)"/>
        <path id="Path_215" data-name="Path 215" d="M522.538,268.132H465.826V117.086h41.683V160.6Z" transform="translate(440.109 110.622)" fill="#fff"/>
        <path id="Path_216" data-name="Path 216" d="M524.129,269.576h-58.8V116.587h43.629v44.481Zm-56.858-1.945h54.621L507.018,161.2l-.008-42.671h-39.74Z" transform="translate(439.637 110.151)"/>
        <path id="Path_217" data-name="Path 217" d="M542.129,82.484s11.564,69.233,0,94.8c-4.306,9.516-23.7,21.161-42.964,21.3-19.489.14-38.845-11.338-42.323-21.3-13.011-37.28,0-94.8,0-94.8s4.154-15.42,5.041-15.6,42.142-3.435,46.333-3.549,16.531,6.212,19.627,7.1,14.286,12.048,14.286,12.048" transform="translate(426.158 59.838)" fill="#fff"/>
        <path id="Path_218" data-name="Path 218" d="M499.261,200.028c-19.866,0-39.322-11.749-42.885-21.955-12.952-37.114-.161-94.754-.031-95.332,4.319-16.041,5.138-16.206,5.8-16.338.887-.177,42.058-3.444,46.5-3.567.043,0,.089,0,.134,0,3.086,0,9.4,2.756,14.5,4.979,2.326,1.013,4.337,1.89,5.288,2.163,3.244.93,13.542,11.134,14.7,12.293l.222.224.051.307c.475,2.839,11.482,69.814-.074,95.353-4.522,10-24.66,21.735-43.841,21.873-.119,0-.243,0-.362,0M462.837,68.276c-.768,1.488-2.882,8.54-4.605,14.934-.12.533-12.787,57.636-.021,94.219,3.285,9.409,22.278,20.654,41.059,20.654.115,0,.228,0,.338,0,18.483-.13,37.8-11.253,42.085-20.73,10.924-24.143.79-88.883-.023-93.926-4.292-4.263-11.6-11-13.643-11.581-1.077-.309-3.042-1.167-5.529-2.25-4.463-1.945-11.165-4.866-13.8-4.811-3.981.109-41.735,3.084-45.856,3.495" transform="translate(425.708 59.364)"/>
        <path id="Path_219" data-name="Path 219" d="M472.465,103.057a6.075,6.075,0,1,1-6.076-6.074,6.075,6.075,0,0,1,6.076,6.074" transform="translate(434.903 91.629)"/>
        <path id="Path_220" data-name="Path 220" d="M497.174,103.057a6.074,6.074,0,1,1-6.074-6.074,6.073,6.073,0,0,1,6.074,6.074" transform="translate(458.25 91.629)"/>
        <path id="Path_221" data-name="Path 221" d="M482.649,89.849c8.127.671,4.481,5.852,1.175,4.228-8.7-4.271-25.177,2.238-28.271,3.186s8.127-8.981,27.1-7.414" transform="translate(429.92 84.73)"/>
        <path id="Path_222" data-name="Path 222" d="M484.527,90.092c-7.793,2.4-3.117,6.678-.239,4.384,7.575-6.041,25.07-3.226,28.3-2.966s-9.868-7.025-28.058-1.418" transform="translate(453.733 83.109)"/>
        <path id="Path_223" data-name="Path 223" d="M483.57,124.5c-4.129,0-8.225-2.7-10.934-4.479l-.7-.459,1.056-1.634.714.467c2.517,1.657,6.321,4.16,9.866,4.16,3.034,0,6.112-1.9,8.584-3.434.731-.451,1.42-.877,2.056-1.227l.937,1.7c-.609.334-1.268.743-1.972,1.179-2.68,1.659-6.019,3.724-9.605,3.724" transform="translate(445.88 111.387)"/>
        <path id="Path_224" data-name="Path 224" d="M483.148,50.956c-.264,2.678.126,7.9-1.042,9.625,0,0,7.087,1.6,6.861.187a16.433,16.433,0,0,0-5.819-9.811" transform="translate(455.49 48.143)"/>
        <path id="Path_225" data-name="Path 225" d="M498.113,51.871c-2.978,3.495-9.837,6.428-10.292,9.823,0,0-7.215-3.59-5.432-4.806a28.314,28.314,0,0,1,15.724-5.018" transform="translate(455.491 49.003)"/>
        <rect id="Rectangle_15" data-name="Rectangle 15" width="5.564" height="1.945" transform="translate(922.657 196.584)"/>
        <path id="Path_226" data-name="Path 226" d="M455.179,105.8l-4.957-8.742,1.69-.961,4.957,8.742Z" transform="translate(425.366 90.788)"/>
        <rect id="Rectangle_16" data-name="Rectangle 16" width="8.511" height="1.944" transform="translate(968.621 194.974) rotate(-62.538)"/>
        <path id="Path_227" data-name="Path 227" d="M474.5,123.973c-7.587,0-15.185-1.558-18.487-4.673-2.591-2.443-3.508-8.153-3.269-12.729.228-4.31,1.445-7.612,3.347-9.059,7.464-5.694,27.754-2.571,36.414-.163,1.184.329,2.764,1.4,3.575,4.613,1.412,5.6-.214,14.506-3.16,17.332-3.252,3.119-10.829,4.679-18.419,4.679m-4.24-27.7c-5.442,0-10.325.747-12.993,2.781-1.422,1.083-2.386,3.93-2.581,7.616-.253,4.8.867,9.52,2.659,11.212,5.974,5.632,28.363,5.634,34.226.006h0c2.452-2.353,3.849-10.586,2.622-15.455-.321-1.276-.965-2.871-2.209-3.215a90.407,90.407,0,0,0-21.725-2.944" transform="translate(427.712 89.091)"/>
        <path id="Path_228" data-name="Path 228" d="M498.44,124.258c-7.594,0-15.171-1.558-18.423-4.679-2.853-2.736-3.995-10.086-3.269-15.232.478-3.392,1.686-5.687,3.489-6.638,8.717-4.592,29.5-5.335,36.613.088,1.9,1.447,3.117,4.745,3.343,9.053.233,4.428-.688,10.3-3.265,12.734-3.3,3.118-10.9,4.673-18.487,4.673m1.521-28.338c-7.1,0-14.58,1.278-18.816,3.51-1.194.628-2.095,2.52-2.47,5.189-.714,5.06.57,11.521,2.688,13.557h0c5.864,5.628,28.256,5.626,34.228-.006,1.793-1.692,2.911-6.408,2.657-11.218-.191-3.682-1.155-6.527-2.579-7.61-3.1-2.363-9.249-3.423-15.71-3.423" transform="translate(450.228 88.805)"/>
        <path id="Path_229" data-name="Path 229" d="M479.737,113.385a10.934,10.934,0,0,1-4.362-.825l.828-1.758c1.861.877,5.321.807,6.26.1l1.167,1.556a6.881,6.881,0,0,1-3.893.926" transform="translate(449.131 104.685)"/>
        <path id="Path_230" data-name="Path 230" d="M608.048,561.865s-24.04-5.618-21.447-27.227.432-61.37-22.472-58.776-3.458,15.558-.434,15.99,13.4,25.066,9.508,42.786,19.448,44.083,31.55,41.488,3.294-14.261,3.294-14.261" transform="translate(522.579 449.478)"/>
        <path id="Path_231" data-name="Path 231" d="M615.053,266.865c2.943,8.557,6.358,14.487,12.931,14.708,21.727.733,53.546-17.795,38.34-35.763-17.206-20.329-33.74-81.45-54.97-84.083-14.041-11.968-53.033-20.92-53.033-20.92l-17.056,84.966L518.34,141.96s-60.469,7.968-60.891,21.255c-17.985,15.782-35.273,60.806-43.886,79.89-9.681,21.453,18.392,36.008,40.1,34.825,5.484-.3,8.685-4.52,11.2-10.916a47.4,47.4,0,0,0,10.807,7.594c1.114.591,5.562,23.942-1.729,52.15-5.945,23-23.832,47.891-23.769,77.358.222,105.571,27.293,233.132,27.293,233.132l166.626-72.939s-.261-81.808-11.56-158.462c-3.2-21.7-17.972-42.959-22.793-61.87a177.032,177.032,0,0,1-4.415-65.874,39.575,39.575,0,0,0,9.728-11.239" transform="translate(388.873 133.034)"/>
        <path id="Path_232" data-name="Path 232" d="M56.739,350.946c-2.032-4.175-11.892-6.591-15.786-5.107-24.6,9.366-35.864,49.5-40,74.5S22.2,445.886,21.079,469.765c-.755,16.117,35.749,1.091,22.853-35.5-4.541-12.884-1.587-26,2.81-38.324" transform="translate(0.471 326.331)"/>
        <path id="Path_233" data-name="Path 233" d="M27.4,477.647a7.786,7.786,0,0,1-3.349-.7c-2.392-1.132-3.627-3.534-3.475-6.764.517-11.05-4.712-16.77-10.245-22.826C4.387,440.854-1.76,434.127.467,420.651c3.17-19.183,13.475-64.919,40.611-75.252,4.191-1.608,14.675.8,17.005,5.589l-1.746.852c-1.723-3.538-10.9-6.021-14.567-4.625-26.192,9.975-36.268,54.9-39.384,73.752-2.075,12.544,3.491,18.633,9.382,25.08,5.558,6.083,11.305,12.373,10.751,24.23-.078,1.694.268,3.923,2.367,4.913,3.069,1.449,8.215-.241,12.509-4.117,3.343-3.016,13.666-14.528,6.093-36.021-4.887-13.866-1.066-28.11,2.81-38.972l1.83.653c-4,11.214-7.464,24.46-2.806,37.673,7.972,22.628-3.053,34.892-6.624,38.11-3.654,3.3-7.826,5.13-11.3,5.13" transform="translate(0 325.862)" fill="#fff"/>
        <path id="Path_234" data-name="Path 234" d="M222.052,494.491c0,28.124-2.569,149.2-25.576,161.041-40.057,20.613-4.551-108.234-68.118-161.041-21.632-17.97,20.975-50.92,46.846-50.92s46.848,22.8,46.848,50.92" transform="translate(115.67 419.083)"/>
        <path id="Path_235" data-name="Path 235" d="M189.318,659.2a9.459,9.459,0,0,1-4.564-1.124c-8.549-4.6-10.56-23.153-13.1-46.636-4-36.93-9.477-87.51-43.443-115.725-5.972-4.959-7.731-11.457-5.082-18.785,5.829-16.138,33.33-33.857,52.55-33.857,26.369,0,47.821,23.279,47.821,51.895,0,6.062-.3,148.623-26.1,161.9a18,18,0,0,1-8.075,2.328M175.677,445.016c-18.569,0-45.115,17.048-50.722,32.573-2.378,6.581-.863,12.176,4.494,16.628,34.573,28.719,40.1,79.75,44.135,117.012,2.482,22.913,4.442,41.014,12.091,45.131,2.783,1.5,6.326,1.1,10.829-1.219,19.812-10.2,25.049-109.233,25.049-160.175,0-27.544-20.58-49.95-45.876-49.95" transform="translate(115.196 418.611)" fill="#fff"/>
        <path id="Path_236" data-name="Path 236" d="M359.737,455.621c8.95,13.073,30.076,55.94,17,76.22-14.148,21.943-63.848,21.128-88.585,29.075C227.8,580.3,145.7,594.983,93.69,587.968c-37.556-5.066-55.448-30.191-57.006-31.457-51.226-41.586,4.2-153.016,4.2-153.016l65.079-7.419s27.2,46.15,101.409,55.4c32.284,4.026,130.529-27.75,152.363,4.144" transform="translate(14.132 374.209)"/>
        <path id="Path_237" data-name="Path 237" d="M123.856,591.246a225.781,225.781,0,0,1-29.909-1.813A89.834,89.834,0,0,1,37.379,558.8c-.467-.539-.772-.9-.926-1.029-51.234-41.6,3.394-153.082,3.952-154.2l.235-.475.523-.06,65.7-7.49.321.543c.27.457,27.867,45.85,100.694,54.931,10.617,1.32,28.229-1.241,48.626-4.207,39.878-5.8,89.505-13.018,104.418,8.767,9.2,13.427,30.3,56.691,17.017,77.3-10,15.508-37.025,19.866-60.87,23.707-10.615,1.711-20.642,3.328-28.234,5.766-48.278,15.51-113.459,28.9-164.981,28.9M41.914,404.9c-3.825,7.948-52.585,112.1-4.232,151.355a12.554,12.554,0,0,1,1.165,1.264,87.936,87.936,0,0,0,55.359,29.985C147.7,594.718,230.2,579.14,288.24,560.5c7.736-2.485,17.832-4.113,28.522-5.836,23.444-3.777,50.014-8.061,59.546-22.84,12.752-19.777-7.989-62-16.986-75.147-14.228-20.782-63.194-13.66-102.535-7.939-20.541,2.989-38.287,5.564-49.145,4.21-69.48-8.662-98.393-50.094-101.787-55.331Z" transform="translate(13.746 373.705)" fill="#fff"/>
        <path id="Path_238" data-name="Path 238" d="M271.389,129.64c-68.9,19.053-75.472,64.474-78.42,161.064-2.538,83.161,19.325,144.945,25.461,160.533-9.362,5.058-16.406,16.611-17.385,30.506-1.365,19.347,21.367,38.277,32.381,40.23,32.945,5.84,19.792-17.274,21.157-36.62.867-12.3-3.224-23.429-10.113-30.172-1.451-15.07-10.724-141.289,19.267-217.928,29.9-76.411,30.335-113.885,7.651-107.613" transform="translate(182.123 121.844)" fill="#fff"/>
        <path id="Path_239" data-name="Path 239" d="M243.036,524.348a53.866,53.866,0,0,1-9.3-.945c-11.89-2.108-34.582-21.422-33.182-41.255.953-13.52,7.491-25.257,17.139-30.87-6.957-17.9-27.706-78.655-25.22-160.13,3.067-100.392,11.083-143.152,79.136-161.97l.259.937-.259-.937c5.482-1.523,9.765-.617,12.733,2.668,10.053,11.146,3.226,48.877-19.219,106.238-31.056,79.357-19.932,209.433-19.238,217.128,7.205,7.233,11,18.668,10.148,30.681a81.284,81.284,0,0,0,.729,14.378c.928,8.444,1.8,16.418-2.845,20.767-2.367,2.217-5.908,3.31-10.877,3.31m33.336-393.931a15.982,15.982,0,0,0-4.251.636c-66.794,18.47-74.67,60.783-77.706,160.16-2.513,82.343,18.8,143.393,25.393,160.144l.317.8-.758.4c-9.333,5.047-15.959,16.71-16.875,29.722-1.355,19.174,21.463,37.408,31.58,39.2,9.351,1.653,15.4,1.044,18.516-1.871,3.934-3.685,3.151-10.844,2.24-19.135a82.755,82.755,0,0,1-.739-14.726c.819-11.593-2.855-22.587-9.823-29.407l-.255-.249-.033-.354c-.13-1.355-12.688-136.556,19.329-218.375,21.844-55.816,28.981-93.805,19.588-104.223a8.38,8.38,0,0,0-6.523-2.732" transform="translate(181.65 121.368)" fill="#231f20"/>
        <path id="Path_240" data-name="Path 240" d="M361.757,144.674c68.9,19.053,75.472,64.474,78.42,161.064,2.538,83.161-19.325,144.945-25.461,160.533,9.362,5.058,16.406,16.61,17.385,30.506,1.365,19.347-21.368,38.277-32.381,40.23-32.945,5.84-19.792-17.274-21.157-36.62-.867-12.3,3.224-23.429,10.113-30.172,1.451-15.07,10.724-141.289-19.267-217.928-29.9-76.411-30.335-113.885-7.651-107.613" transform="translate(326.659 136.049)" fill="#fff"/>
        <path id="Path_241" data-name="Path 241" d="M391.063,539.384c-4.971,0-8.508-1.093-10.877-3.31-4.648-4.349-3.773-12.322-2.845-20.766a81.278,81.278,0,0,0,.729-14.378c-.846-12.013,2.944-23.448,10.148-30.681.694-7.7,11.818-137.771-19.236-217.13-22.447-57.362-29.273-95.091-19.22-106.238,2.964-3.287,7.256-4.187,12.733-2.666,68.056,18.82,76.071,61.578,79.136,161.968,2.487,81.471-18.264,142.232-25.22,160.13,9.648,5.617,16.188,17.351,17.141,30.872,1.4,19.833-21.3,39.147-33.184,41.255a53.87,53.87,0,0,1-9.3.945M357.728,145.452a8.379,8.379,0,0,0-6.523,2.73c-9.393,10.418-2.254,48.408,19.59,104.225,32.015,81.817,19.458,217.018,19.327,218.373l-.033.354-.255.249c-6.966,6.822-10.64,17.816-9.823,29.409a82.755,82.755,0,0,1-.739,14.726c-.91,8.291-1.694,15.449,2.24,19.135,3.114,2.915,9.166,3.524,18.516,1.871,10.117-1.8,32.935-20.029,31.581-39.2-.916-13.011-7.542-24.677-16.877-29.722l-.758-.406.317-.8c6.593-16.753,27.908-77.805,25.393-160.146-3.034-99.375-10.91-141.686-77.706-160.158a16.064,16.064,0,0,0-4.251-.634" transform="translate(326.178 135.574)" fill="#231f20"/>
        <rect id="Rectangle_17" data-name="Rectangle 17" width="28.524" height="82.403" transform="translate(492.451 994.657)" fill="#fff"/>
        <path id="Path_242" data-name="Path 242" d="M283.185,595.294H252.716V510.946h30.469Zm-28.524-1.945H281.24V512.891H254.661Z" transform="translate(238.764 482.738)"/>
        <rect id="Rectangle_18" data-name="Rectangle 18" width="28.524" height="82.403" transform="translate(598.364 994.657)" fill="#fff"/>
        <path id="Path_243" data-name="Path 243" d="M337.643,595.294H307.176V510.946h30.467Zm-28.522-1.945H335.7V512.891H309.121Z" transform="translate(290.218 482.738)"/>
        <path id="Path_244" data-name="Path 244" d="M423.95,228.765A105.6,105.6,0,0,0,258.724,357.773L250.986,825.7h50.076l43.209-386.716L351.249,825.7h57.7l30.988-468.1a105.634,105.634,0,0,0-15.99-128.843" transform="translate(230.236 186.913)" fill="#fff"/>
        <path id="Path_245" data-name="Path 245" d="M410.369,827.146H350.8l-6.723-372.653-41.64,372.653H250.505l.017-.988,7.734-467.653a106.577,106.577,0,1,1,183.147-.128ZM352.714,825.2h55.837L439.493,357.78l.122-.2a104.635,104.635,0,1,0-179.549.163l.144.239,0,.276L252.485,825.2H300.7l43.112-385.851,1.939.091Z" transform="translate(229.726 186.441)"/>
        <path id="Path_246" data-name="Path 246" d="M375.063,215.573h-104.9L286.448,83.381h72.329Z" transform="translate(255.248 78.778)" fill="#fff"/>
        <path id="Path_247" data-name="Path 247" d="M376.7,217.017H269.6L286.121,82.881h74.05Zm-104.9-1.945H374.5L358.452,84.826h-70.61Z" transform="translate(254.712 78.305)"/>
        <path id="Path_248" data-name="Path 248" d="M283.876,66.313A14.535,14.535,0,1,1,269.34,51.778a14.535,14.535,0,0,1,14.535,14.535" transform="translate(240.738 48.919)" fill="#fff"/>
        <path id="Path_249" data-name="Path 249" d="M269.814,82.294a15.508,15.508,0,1,1,15.508-15.508,15.527,15.527,0,0,1-15.508,15.508m0-29.071a13.563,13.563,0,1,0,13.563,13.563,13.579,13.579,0,0,0-13.563-13.563" transform="translate(240.265 48.447)"/>
        <path id="Path_250" data-name="Path 250" d="M271.644,62.314a6.3,6.3,0,1,1-6.3-6.3,6.3,6.3,0,0,1,6.3,6.3" transform="translate(244.737 52.919)" fill="#fff"/>
        <path id="Path_251" data-name="Path 251" d="M265.813,70.061a7.275,7.275,0,1,1,7.275-7.275,7.283,7.283,0,0,1-7.275,7.275m0-12.606a5.331,5.331,0,1,0,5.331,5.331,5.335,5.335,0,0,0-5.331-5.331" transform="translate(244.265 52.445)" fill="#231f20"/>
        <path id="Path_252" data-name="Path 252" d="M350.012,66.313a14.535,14.535,0,1,1-14.535-14.535,14.535,14.535,0,0,1,14.535,14.535" transform="translate(303.223 48.919)" fill="#fff"/>
        <path id="Path_253" data-name="Path 253" d="M335.95,82.294a15.508,15.508,0,1,1,15.508-15.508A15.527,15.527,0,0,1,335.95,82.294m0-29.071a13.563,13.563,0,1,0,13.563,13.563A13.579,13.579,0,0,0,335.95,53.223" transform="translate(302.75 48.447)"/>
        <path id="Path_254" data-name="Path 254" d="M337.779,62.314a6.3,6.3,0,1,1-6.3-6.3,6.3,6.3,0,0,1,6.3,6.3" transform="translate(307.221 52.919)" fill="#fff"/>
        <path id="Path_255" data-name="Path 255" d="M331.949,70.061a7.275,7.275,0,1,1,7.274-7.275,7.283,7.283,0,0,1-7.274,7.275m0-12.606a5.331,5.331,0,1,0,5.329,5.331,5.335,5.335,0,0,0-5.329-5.331" transform="translate(306.75 52.445)" fill="#231f20"/>
        <path id="Path_256" data-name="Path 256" d="M380.9,36.922s14.845,88.881,0,121.7c-5.529,12.217-30.426,27.169-55.158,27.348-25.022.181-49.872-14.555-54.336-27.348-16.7-47.857,0-121.7,0-121.7s5.333-19.8,6.47-20.026,54.1-4.409,59.483-4.559,21.222,7.978,25.2,9.117S380.9,36.922,380.9,36.922" transform="translate(249.411 11.655)" fill="#fff"/>
        <path id="Path_257" data-name="Path 257" d="M325.73,187.413c-25.393,0-50.251-14.981-54.793-28-16.6-47.57-.2-121.491-.031-122.232,5.5-20.418,6.54-20.626,7.229-20.765,1.124-.224,53.929-4.417,59.645-4.576,3.915-.072,12.056,3.481,18.666,6.361,3,1.307,5.585,2.435,6.826,2.793,4.1,1.173,17.272,14.228,18.761,15.712l.22.222.052.307c.607,3.641,14.724,89.548-.074,122.257-5.774,12.768-31.512,27.744-56.037,27.921-.156,0-.309,0-.465,0M278.8,18.288c-.939,1.647-3.728,10.908-6,19.357-.156.7-16.439,74.083-.021,121.124,4.333,12.416,28.341,26.7,52.953,26.7.152,0,.3,0,.455,0,23.826-.173,48.744-14.535,54.281-26.778,14.121-31.216.912-115.054-.023-120.83-5.725-5.689-15-14.224-17.7-15-1.363-.393-3.882-1.49-7.069-2.878-6.013-2.624-14.222-6.2-17.7-6.2-.045,0-.088,0-.132,0-5.338.148-54.526,4.034-59.036,4.506" transform="translate(248.964 11.183)"/>
        <path id="Path_258" data-name="Path 258" d="M291.34,61.131a7.193,7.193,0,1,1-7.192-7.192,7.191,7.191,0,0,1,7.192,7.192" transform="translate(261.664 50.961)"/>
        <path id="Path_259" data-name="Path 259" d="M320.6,61.131a7.193,7.193,0,1,1-7.192-7.192,7.191,7.191,0,0,1,7.192,7.192" transform="translate(289.313 50.961)"/>
        <path id="Path_260" data-name="Path 260" d="M303.943,38.748c10.871-.716,7.871,10.257,2.9,10.482s-33.233,3.676-37.122,5.659,8.853-14.473,34.226-16.142" transform="translate(254.176 36.577)"/>
        <path id="Path_261" data-name="Path 261" d="M309.008,39.838c-10.879-.572-7.734,10.36-2.758,10.519s33.279,3.236,37.194,5.169S334.4,41.172,309.008,39.838" transform="translate(285.027 37.618)"/>
        <path id="Path_262" data-name="Path 262" d="M312.742,96.325c5.233,4.518,5.233,18.075,0,22.593a14.939,14.939,0,0,1-18.948,0c-5.233-4.518-5.233-18.075,0-22.593a14.939,14.939,0,0,1,18.948,0" transform="translate(273.866 87.806)"/>
        <path id="Path_263" data-name="Path 263" d="M303.281,82.348c-5.29,0-10.453-1.145-13.581-3.433l1.146-1.567c5.615,4.1,19.049,4.078,25.679-.043l1.025,1.653c-3.637,2.26-9.016,3.39-14.269,3.39" transform="translate(273.708 73.037)"/>
        <path id="Path_264" data-name="Path 264" d="M298.163,80.212c-.228,0-.391-.008-.471-.012l.093-1.941c1.4.049,4.063-.247,4.267-1.27.294-1.472-.939-5.922-1.789-8.382l1.838-.634c.241.7,2.351,6.931,1.857,9.4-.519,2.6-4.38,2.843-5.8,2.843" transform="translate(281.257 64.22)"/>
        <path id="Path_265" data-name="Path 265" d="M266.662,25.565s-2.268,42.48-4.074,48.589,4.948,8.8,4.948,8.8l12.1-62Z" transform="translate(247.8 19.793)"/>
        <path id="Path_266" data-name="Path 266" d="M333.684,24.612s2.268,43.964,4.074,50.285-4.948,9.1-4.948,9.1l-12.1-64.165Z" transform="translate(303.007 18.741)"/>
        <path id="Path_267" data-name="Path 267" d="M386.437,49.947C375.212,62.553,396.014,35.7,324.187,35.7c-64.447,0-46.463,27.6-57.3,14.514C253.77,34.377,278,0,325.744,0c48.571,0,73.828,35.195,60.693,49.946" transform="translate(248.812 0.001)"/>
        <path id="Path_268" data-name="Path 268" d="M347.334,23.93c0,6.982-15.784,12.641-35.253,12.641s-35.255-5.659-35.255-12.641,15.784-12.639,35.255-12.639,35.253,5.657,35.253,12.639" transform="translate(261.543 10.668)"/>
        <path id="Path_269" data-name="Path 269" d="M283.442,103.68,281.5,103.5a31.161,31.161,0,0,1,2.425-9.354l1.741.869a29.673,29.673,0,0,0-2.229,8.668" transform="translate(265.964 88.946)"/>
        <rect id="Rectangle_19" data-name="Rectangle 19" width="6.711" height="1.944" transform="translate(537.701 186.718) rotate(-69.989)"/>
        <rect id="Rectangle_20" data-name="Rectangle 20" width="7.204" height="1.944" transform="translate(528.334 180.658) rotate(-51.744)"/>
        <rect id="Rectangle_21" data-name="Rectangle 21" width="7.688" height="1.943" transform="matrix(0.535, -0.845, 0.845, 0.535, 523.319, 175.592)"/>
        <rect id="Rectangle_22" data-name="Rectangle 22" width="6.977" height="1.946" transform="matrix(0.66, -0.752, 0.752, 0.66, 519.503, 167.896)"/>
        <rect id="Rectangle_23" data-name="Rectangle 23" width="1.944" height="7.646" transform="matrix(0.986, -0.165, 0.165, 0.986, 595.841, 186.187)"/>
        <path id="Path_270" data-name="Path 270" d="M311.851,101.934l-2.406-6.9,1.834-.642,2.406,6.9Z" transform="translate(292.362 89.183)"/>
        <rect id="Rectangle_24" data-name="Rectangle 24" width="1.946" height="5.637" transform="translate(609.01 182.452) rotate(-21.35)"/>
        <rect id="Rectangle_25" data-name="Rectangle 25" width="1.945" height="5.132" transform="matrix(0.715, -0.699, 0.699, 0.715, 614.564, 179.11)"/>
        <rect id="Rectangle_26" data-name="Rectangle 26" width="1.944" height="6.389" transform="matrix(0.621, -0.784, 0.784, 0.621, 620.125, 173.628)"/>
        <rect id="Rectangle_27" data-name="Rectangle 27" width="1.946" height="5.653" transform="matrix(0.771, -0.637, 0.637, 0.771, 625.959, 166.535)"/>
        <rect id="Rectangle_28" data-name="Rectangle 28" width="7.048" height="1.945" transform="translate(571.948 113.07)"/>
        <path id="Path_271" data-name="Path 271" d="M269.824,64.02l-6.28-11.735,1.711-.92L271.537,63.1Z" transform="translate(248.995 48.53)"/>
        <rect id="Rectangle_29" data-name="Rectangle 29" width="11.293" height="1.945" transform="translate(630.397 110.754) rotate(-63.948)"/>
        <path id="Path_272" data-name="Path 272" d="M294.11,88.294c-8.285,0-18.678-1.645-23.312-6.282-3.217-3.213-4.345-11.031-4.033-16.933.3-5.619,1.795-9.913,4.109-11.782,9.386-7.589,35-3.4,45.94-.177,1.976.581,3.446,2.526,4.247,5.62,1.9,7.3-.109,19.483-3.829,23.266-4.508,4.584-14.763,6.254-22.857,6.288ZM288.594,50.97c-6.809,0-13,1.011-16.5,3.841-1.857,1.5-3.125,5.377-3.39,10.372-.348,6.6,1.108,13.1,3.466,15.455,3.479,3.479,12.064,5.712,21.916,5.712h.276c9.829-.041,18.059-2.227,21.48-5.706l.692.681-.692-.681c3.221-3.277,5.029-14.883,3.335-21.414-.434-1.671-1.291-3.763-2.917-4.244a110.25,110.25,0,0,0-27.669-4.016" transform="translate(251.99 46.318)"/>
        <path id="Path_273" data-name="Path 273" d="M324.33,88.681h-.268c-8.092-.035-18.347-1.706-22.853-6.289-3.567-3.629-4.975-13.674-4.006-20.418.428-2.987,1.509-6.865,4.224-8.382,11-6.136,37.188-7.141,46.142.091,2.31,1.869,3.81,6.161,4.105,11.776.313,5.9-.815,13.724-4.03,16.939-4.638,4.636-15.029,6.284-23.314,6.284m-21.735-7.653c3.421,3.477,11.649,5.665,21.476,5.708h.28c9.854,0,18.437-2.235,21.918-5.714,2.357-2.357,3.814-8.859,3.464-15.461-.264-4.99-1.531-8.866-3.388-10.366-8.295-6.7-33.672-5.654-43.968.093-1.579.881-2.734,3.353-3.25,6.96-1,6.966.655,15.916,3.468,18.779" transform="translate(280.513 45.934)"/>
        <path id="Path_274" data-name="Path 274" d="M603.435,330.943l-6.256-10.912-.052-10.7s-4.086-71.815-10.984-105.659c-4.446-21.815-72.733-79.091-96.1-79.124-21.422-10.01-47.6-19.915-47.6-19.915s-18.567,24.73-32.634,31.642c-5.07.805-8.172,1.3-8.172,1.3l-4.335-1.153c-14.123-6.692-32.939-31.77-32.939-31.77S347.539,110.9,329.875,118.5l-3.7-.984c-2.19.852-86.36,6.682-113.665,83.36s-21.006,75.942-20.58,83.963c0,0-5.512,1.706-6.571,2.237s-.463,10.65-.463,10.65l4.428,17.209,77.85,8,.568-19.008,5.123-18.281c2.423,20.475,5.533,38.97,8.069,52.364,4.58,24.182-.235,65.954,21.233,77.609,16.968,9.209,23.658,1.616,101.765,1.98,75,.35,85.318,14.812,101.715,5.864,21.669-11.824,13.886-62.107,18.45-86.555.667-3.576,1.389-7.524,2.141-11.766l1.641,3.092-.263,6.044Z" transform="translate(174.531 98.855)"/>
        <path id="Path_275" data-name="Path 275" d="M217.44,580.768a52.365,52.365,0,1,1,104.729,0" transform="translate(205.436 499.232)"/>
        <path id="Path_276" data-name="Path 276" d="M17.787,570.154a30.517,30.517,0,0,1,61.033,0" transform="translate(16.805 509.846)"/>
        <path id="Path_277" data-name="Path 277" d="M61.015,570.154a30.517,30.517,0,0,1,61.033,0" transform="translate(57.647 509.846)"/>
        <path id="Path_278" data-name="Path 278" d="M137.884,570.154a30.517,30.517,0,0,1,61.033,0" transform="translate(130.272 509.846)"/>
        <path id="Path_279" data-name="Path 279" d="M181,570.154a30.517,30.517,0,0,1,61.033,0" transform="translate(171.005 509.846)"/>
        <path id="Path_280" data-name="Path 280" d="M301.74,580.768a52.365,52.365,0,1,1,104.729,0" transform="translate(285.082 499.232)"/>
        <rect id="Rectangle_30" data-name="Rectangle 30" width="1.946" height="279.783" transform="translate(576.953 236.948) rotate(-1.848)" fill="#fff"/>
        <path id="Path_281" data-name="Path 281" d="M305.627,155.515a5.145,5.145,0,1,1-5.146-5.146,5.146,5.146,0,0,1,5.146,5.146" transform="translate(279.032 142.068)" fill="#fff"/>
        <path id="Path_282" data-name="Path 282" d="M306.847,185.387a5.145,5.145,0,1,1-5.146-5.146,5.147,5.147,0,0,1,5.146,5.146" transform="translate(280.185 170.29)" fill="#fff"/>
        <path id="Path_283" data-name="Path 283" d="M308.066,215.258a5.145,5.145,0,1,1-5.146-5.146,5.146,5.146,0,0,1,5.146,5.146" transform="translate(281.337 198.512)" fill="#fff"/>
        <path id="Path_284" data-name="Path 284" d="M309.286,245.13a5.145,5.145,0,1,1-5.146-5.146,5.147,5.147,0,0,1,5.146,5.146" transform="translate(282.489 226.735)" fill="#fff"/>
        <path id="Path_285" data-name="Path 285" d="M325.76,136.353l-9.409,12.927L265.9,110.147l20.07-6.754Z" transform="translate(251.225 97.685)"/>
        <path id="Path_286" data-name="Path 286" d="M297.132,136.895l9.409,12.927,51.267-39.73-20.228-6.64Z" transform="translate(280.729 97.741)"/>
        <path id="Path_287" data-name="Path 287" d="M340.143,183.372H332.65V166.661l3.746-7.2,3.748,7.2Z" transform="translate(314.285 150.656)" fill="#f50"/>
        <path id="Path_288" data-name="Path 288" d="M342.771,183.372h-3.454V166.661l1.727-7.2,1.727,7.2Z" transform="translate(320.585 150.656)" fill="#f50"/>
        <path id="Path_289" data-name="Path 289" d="M402.389,318.1H368.556l-2.47-24.2h41.056Z" transform="translate(345.875 277.677)"/>
        <path id="Path_290" data-name="Path 290" d="M555.66,308.4H533.9l-1.589-24.2h26.408Z" transform="translate(502.922 268.51)"/>
        <path id="Path_291" data-name="Path 291" d="M499.411,559.421c-.14-1.254-14.111-126.1-18.069-187.643l-3.4-188.1,1.945-.035,3.4,188.056C487.236,433.149,501.2,557.95,501.344,559.2Z" transform="translate(451.555 173.504)" fill="#fff"/>
        <path id="Path_292" data-name="Path 292" d="M486.085,185.231a5.145,5.145,0,1,1-5.146-5.146,5.147,5.147,0,0,1,5.146,5.146" transform="translate(449.528 170.143)" fill="#fff"/>
        <path id="Path_293" data-name="Path 293" d="M487.124,208.609a5.145,5.145,0,1,1-5.146-5.146,5.146,5.146,0,0,1,5.146,5.146" transform="translate(450.51 192.23)" fill="#fff"/>
        <path id="Path_294" data-name="Path 294" d="M488.051,257.547A5.145,5.145,0,1,1,482.9,252.4a5.145,5.145,0,0,1,5.146,5.146" transform="translate(451.385 238.467)" fill="#fff"/>
        <path id="Path_295" data-name="Path 295" d="M488.051,288.954a5.145,5.145,0,1,1-5.146-5.146,5.145,5.145,0,0,1,5.146,5.146" transform="translate(451.385 268.14)" fill="#fff"/>
        <path id="Path_296" data-name="Path 296" d="M491.6,321.688a5.145,5.145,0,1,1-5.146-5.146,5.147,5.147,0,0,1,5.146,5.146" transform="translate(454.742 299.067)" fill="#fff"/>
        <path id="Path_297" data-name="Path 297" d="M494.477,357.837a5.145,5.145,0,1,1-5.146-5.146,5.146,5.146,0,0,1,5.146,5.146" transform="translate(457.457 333.22)" fill="#fff"/>
        <path id="Path_298" data-name="Path 298" d="M304.811,124.321a5.145,5.145,0,1,1-5.146-5.146,5.147,5.147,0,0,1,5.146,5.146" transform="translate(278.261 112.596)" fill="#fff"/>
        <line id="Line_1" data-name="Line 1" x2="12.96" transform="translate(372.318 433.128)" fill="#fff"/>
        <rect id="Rectangle_31" data-name="Rectangle 31" width="12.96" height="1.945" transform="translate(372.317 432.156)" fill="#231f20"/>
        <line id="Line_2" data-name="Line 2" x2="12.96" transform="translate(372.318 447.771)" fill="#fff"/>
        <rect id="Rectangle_32" data-name="Rectangle 32" width="12.96" height="1.945" transform="translate(372.317 446.799)" fill="#231f20"/>
        <line id="Line_3" data-name="Line 3" x2="10.389" transform="translate(374.889 460.224)" fill="#fff"/>
        <rect id="Rectangle_33" data-name="Rectangle 33" width="10.389" height="1.945" transform="translate(374.888 459.251)" fill="#231f20"/>
        <line id="Line_4" data-name="Line 4" x2="11.669" transform="translate(762.141 442.072)" fill="#fff"/>
        <rect id="Rectangle_34" data-name="Rectangle 34" width="11.669" height="1.945" transform="translate(762.141 441.1)" fill="#231f20"/>
        <line id="Line_5" data-name="Line 5" x2="11.669" transform="translate(762.141 455.902)" fill="#fff"/>
        <rect id="Rectangle_35" data-name="Rectangle 35" width="11.669" height="1.945" transform="translate(762.141 454.93)" fill="#231f20"/>
        <line id="Line_6" data-name="Line 6" x2="9.94" y2="1.702" transform="translate(762.141 470.164)" fill="#fff"/>
        <rect id="Rectangle_36" data-name="Rectangle 36" width="1.945" height="10.084" transform="translate(761.977 471.123) rotate(-80.285)" fill="#231f20"/>
        <path id="Path_299" data-name="Path 299" d="M97.521,506.448c-11.344,10.228-44.775,10.228-56.119,0-12.221-11.019-20.224-41.029-22.752-72.07a255.668,255.668,0,0,1-.811-25.947c.482-22.879,4.3-43.464,12.011-53.952,13.332-18.149,65.892-18.149,79.225,0,20.731,28.219,13.349,129.516-11.554,151.97" transform="translate(16.805 322.048)"/>
        <path id="Path_300" data-name="Path 300" d="M50.706,377.59a3.578,3.578,0,1,1-3.578-3.578,3.579,3.579,0,0,1,3.578,3.578" transform="translate(41.145 353.364)" fill="#fff"/>
        <path id="Path_301" data-name="Path 301" d="M30.688,376.852a3.578,3.578,0,1,1-3.578-3.579,3.579,3.579,0,0,1,3.578,3.579" transform="translate(22.232 352.667)" fill="#fff"/>
        <path id="Path_302" data-name="Path 302" d="M251.52,491.162c0,29.732,14.2,154.6-8.8,167.112-40.057,21.793-21.325-111.283-84.892-167.112-21.632-19,20.975-53.836,46.846-53.836s46.848,24.1,46.848,53.836" transform="translate(143.511 413.183)"/>
        <path id="Path_303" data-name="Path 303" d="M76.438,643.462H45.29l-27.5-187.114,56.245,24.779Z" transform="translate(16.805 431.154)"/>
        <path id="Path_304" data-name="Path 304" d="M102.768,648.891H74.951L64.146,450.6l65.1,18.332Z" transform="translate(60.605 425.724)"/>
        <path id="Path_305" data-name="Path 305" d="M204.087,486s68.484-58.459,36.749-124.426c0,0,105.009,88.729-17.678,132.232S204.087,486,204.087,486" transform="translate(154.194 341.613)"/>
        <path id="Path_306" data-name="Path 306" d="M54.423,338.215c-.375,3.8.179,11.208-1.478,13.651,0,0,10.051,2.266,9.73.264a23.3,23.3,0,0,0-8.252-13.915" transform="translate(50.022 319.543)"/>
        <path id="Path_307" data-name="Path 307" d="M75.648,339.513c-4.224,4.957-13.952,9.117-14.6,13.932,0,0-10.233-5.093-7.705-6.815a40.152,40.152,0,0,1,22.3-7.118" transform="translate(50.023 320.763)"/>
        <path id="Path_308" data-name="Path 308" d="M181.531,416.311c-.9,3.7-3.551,10.632-3.135,13.332,0,0-7.738-.105-6.9-1.939a25.1,25.1,0,0,1,10.037-11.393" transform="translate(161.966 393.328)"/>
        <path id="Path_309" data-name="Path 309" d="M168.577,415.089c1.447,5.671,7,11.818,5.976,16.55,0,0,8.73-2.55,7.484-4.757-5.521-9.779-13.46-11.793-13.46-11.793" transform="translate(159.27 392.173)"/>
        <path id="Path_310" data-name="Path 310" d="M16.043,421.815c3.415,1.686,9.6,5.788,12.324,5.972,0,0-1.793,7.528-3.4,6.311a25.085,25.085,0,0,1-8.925-12.283" transform="translate(15.157 398.528)"/>
        <path id="Path_311" data-name="Path 311" d="M13.092,434.55c5.85-.173,13.061-4.244,17.456-2.215,0,0-.58-9.074-3.007-8.341-10.749,3.25-14.45,10.556-14.45,10.556" transform="translate(12.369 400.546)"/>
        <path id="Path_312" data-name="Path 312" d="M14.75,442.7c4.874-3.238,8.845-10.5,13.647-11.1,0,0-5.288-7.4-6.96-5.494-7.408,8.44-6.686,16.6-6.686,16.6" transform="translate(13.918 402.284)"/>
        <path id="Path_313" data-name="Path 313" d="M24.6,421.272s53.221,27.659,103.321-13.036L140,419.345s-39.18,44.61-120.507,19.524Z" transform="translate(18.413 385.699)" fill="#f50"/>
        <path id="Path_314" data-name="Path 314" d="M61.361,349.816c1.925-4.267,11.039-6.593,14.6-5,22.525,10.057,32.363,51.588,35.837,77.411S91.9,448.187,92.614,472.8c.478,16.616-32.659,5.364-20.829-32.4,4.648-14.837-.185-32.55-5.066-49.018" transform="translate(57.973 325.304)"/>
        <path id="Path_315" data-name="Path 315" d="M86.5,481.713a14.674,14.674,0,0,1-9.284-3.95c-3.24-2.822-13.246-13.841-5.932-37.186,4.409-14.075.117-30.949-5.072-48.451l1.865-.556c5.278,17.8,9.636,34.993,5.064,49.586-6.962,22.219,2.336,32.513,5.352,35.141,3.54,3.084,7.826,4.249,10.642,2.921,1.974-.934,3.014-3.036,2.931-5.92-.348-12.178,5.02-18.553,10.21-24.716,5.523-6.556,10.739-12.75,8.989-25.759C108.648,403.34,99.96,356.869,76,346.171c-3.02-1.363-11.591.683-13.32,4.512l-1.774-.8c2.223-4.92,12.005-7.225,15.887-5.488,24.854,11.1,33.738,58.363,36.4,78.171,1.865,13.862-3.876,20.679-9.426,27.268-5.187,6.157-10.086,11.974-9.755,23.41.107,3.7-1.328,6.451-4.043,7.732a8.046,8.046,0,0,1-3.468.739" transform="translate(57.543 324.837)" fill="#fff"/>
        <path id="Path_316" data-name="Path 316" d="M88.249,425.443c-7.462,6.626-14.1,8.117-14.1,8.117-2.886,2.017-22.433,4.343-34.164,3.765s-22.062-6.7-23.5-13.324-2.308-14.693,6.7-24.489c0,0-1.058-16.2-.541-22.066" transform="translate(14.718 356.609)"/>
        <path id="Path_317" data-name="Path 317" d="M44.436,438.429c-1.416,0-2.765-.029-4.024-.091-11.9-.585-22.844-6.906-24.4-14.088-1.5-6.9-2.332-15.09,6.655-25.045-.165-2.622-.99-16.383-.513-21.8l1.937.171c-.5,5.725.533,21.756.543,21.918l.027.412-.28.309c-8.658,9.409-7.878,17.126-6.47,23.621,1.363,6.274,11.71,12.025,22.6,12.561,12.221.6,31.187-1.931,33.561-3.594l.342-.15c.064-.016,6.513-1.538,13.672-7.9l1.291,1.455c-6.982,6.2-13.223,8.007-14.36,8.295-3.306,1.988-19.04,3.923-30.576,3.923" transform="translate(14.24 356.568)" fill="#fff"/>
        <path id="Path_318" data-name="Path 318" d="M33.306,394.632c1.439,5.292-2.773,20.56-15.726,17.8" transform="translate(16.609 372.846)"/>
        <path id="Path_319" data-name="Path 319" d="M20.674,413.857a15.388,15.388,0,0,1-3.2-.35l.406-1.9a10.441,10.441,0,0,0,10.4-3.011c3.79-4.008,4.992-10.611,4.183-13.582l1.877-.51c.908,3.339-.224,10.753-4.646,15.428a12.082,12.082,0,0,1-9.022,3.927" transform="translate(16.51 372.723)" fill="#fff"/>
        <path id="Path_320" data-name="Path 320" d="M28.126,393.8s1.326,21.858,16.181,21.513c0,0,8.318-.525,8.236-6.618" transform="translate(26.573 372.063)"/>
        <path id="Path_321" data-name="Path 321" d="M44.465,416.32c-15.3,0-16.824-22.2-16.838-22.427l1.941-.119c.014.208,1.424,20.6,14.874,20.6.1,0,.208,0,.311,0,.263-.018,7.357-.543,7.289-5.632l1.945-.027c.074,5.552-5.953,7.4-9.15,7.6-.123,0-.249,0-.371,0" transform="translate(26.102 372.035)" fill="#fff"/>
        <path id="Path_322" data-name="Path 322" d="M40.828,401.4c0,6.877-19.814,6.877-19.814,0s4.436-12.453,9.907-12.453,9.907,5.576,9.907,12.453" transform="translate(19.854 367.477)" fill="#fff"/>
        <path id="Path_323" data-name="Path 323" d="M695.206,601.99H583.415s-26.537-55.689,7.491-75.81c38.5-22.768,73.715-27.095,106.028-9.047,34.983,19.539-1.729,84.857-1.729,84.857" transform="translate(541.898 478.01)"/>
        <path id="Path_324" data-name="Path 324" d="M628.714,564.546a18.973,18.973,0,0,1,37.947,0" transform="translate(594.005 515.454)"/>
        <path id="Path_325" data-name="Path 325" d="M625.179,546.018a18.109,18.109,0,0,1,18.108,18.108" transform="translate(590.665 515.874)"/>
        <path id="Path_326" data-name="Path 326" d="M644.261,564.6h-1.945a17.158,17.158,0,0,0-17.138-17.137v-1.945A19.1,19.1,0,0,1,644.261,564.6" transform="translate(590.665 515.401)" fill="#fff"/>
        <path id="Path_327" data-name="Path 327" d="M621.776,580.418h-1.945a26.412,26.412,0,0,0-26.383-26.381,1.17,1.17,0,0,1-1.124-.673c-.358-.815.228-1.457,1.639-3,3.508-3.847,10.811-11.849,3.915-20.362l1.511-1.223c7.948,9.811-.418,18.981-3.991,22.9-.138.152-.28.309-.418.463a28.36,28.36,0,0,1,26.8,28.285" transform="translate(559.527 499.582)" fill="#fff"/>
        <path id="Path_328" data-name="Path 328" d="M647.845,490.822c2.635-5.395,23.359-5.582,23.359-5.582l-6.173,21.891-9.492.576s-9.73-12.717-7.694-16.885" transform="translate(611.815 458.452)"/>
        <path id="Path_329" data-name="Path 329" d="M623.218,526.446c2.093-1.171,3.257-3.207,3.257-6.365a33.041,33.041,0,0,1,66.082,0c0,9.475-2.248,13.573-10.842,21.869-7.061,6.813-15.052,13.351-16.743,26.863" transform="translate(588.812 460.153)"/>
        <path id="Path_330" data-name="Path 330" d="M652.828,495.528c1.441-7.122-25.906-13.18-25.906-13.18l2.314,26.63" transform="translate(592.311 455.719)"/>
        <path id="Path_331" data-name="Path 331" d="M646.436,501.833a3.578,3.578,0,1,1-3.578-3.578,3.579,3.579,0,0,1,3.578,3.578" transform="translate(603.987 470.748)" fill="#fff"/>
        <path id="Path_332" data-name="Path 332" d="M659.608,501.833a3.578,3.578,0,1,1-3.578-3.578,3.579,3.579,0,0,1,3.578,3.578" transform="translate(616.431 470.748)" fill="#fff"/>
        <path id="Path_333" data-name="Path 333" d="M652.523,511.533l-.953-1.694c.679-.379,16.747-9.246,31.591-1.9l-.862,1.745c-13.925-6.9-29.621,1.76-29.777,1.848" transform="translate(615.599 477.155)"/>
        <path id="Path_334" data-name="Path 334" d="M674.205,513.012c-8.341-3.617-24.775-3.1-24.932-3.09l-.068-1.945c.692-.025,17.03-.537,25.774,3.25Z" transform="translate(613.365 479.898)"/>
        <path id="Path_335" data-name="Path 335" d="M672.479,519.357c-6.566-6.293-23.108-6.929-23.273-6.933l.064-1.945c.712.023,17.453.665,24.553,7.472Z" transform="translate(613.365 482.297)"/>
        <path id="Path_336" data-name="Path 336" d="M586.46,511.464c.6,3.761.828,11.179,2.254,13.508,0,0-7.178,2.89-7.116.875a25.1,25.1,0,0,1,4.862-14.384" transform="translate(549.49 483.228)"/>
        <path id="Path_337" data-name="Path 337" d="M576.2,513.482c3.524,4.673,11.015,8.2,11.9,12.96,0,0,7.071-5.72,5.068-7.275-8.866-6.891-16.968-5.685-16.968-5.685" transform="translate(544.393 485.058)"/>
        <path id="Path_338" data-name="Path 338" d="M653.43,483.572c-1.146,3.633-4.263,10.368-4.032,13.088,0,0-7.711-.628-6.752-2.4a25.089,25.089,0,0,1,10.784-10.687" transform="translate(607.09 456.876)"/>
        <path id="Path_339" data-name="Path 339" d="M640.206,481.808c1.06,5.755,6.179,12.266,4.843,16.916,0,0,8.882-1.951,7.787-4.238-4.844-10.13-12.63-12.678-12.63-12.678" transform="translate(604.862 455.209)"/>
        <path id="Path_340" data-name="Path 340" d="M659.867,511.171c-.194-.072-19.306-7.244-28.079-1.534l-1.06-1.63c9.594-6.245,29.01,1.033,29.829,1.348Z" transform="translate(595.908 477.578)" fill="#fff"/>
        <path id="Path_341" data-name="Path 341" d="M637.756,515.617l-1.914-.35c.972-5.344,14.481-6.4,16.017-6.5l.128,1.941c-5.607.375-13.73,2.147-14.232,4.909" transform="translate(600.739 480.681)" fill="#fff"/>
        <path id="Path_342" data-name="Path 342" d="M627.974,505.549s6.64,23.522,45.673,30.436a16.778,16.778,0,0,0-4.4,9.076,151.421,151.421,0,0,1-26.505-12.913c-12.067-7.68-22.313-18.092-21.533-23.849Z" transform="translate(586.874 477.639)" fill="#f50"/>
        <path id="Path_343" data-name="Path 343" d="M531.669,100.209s7.207-4.457,9.372-3.061c14.351,9.255,28.437,21.453,28.184,33.639-.292,14.026,6.494,87.839-2.946,108.584s-5.436,42.064,2.946,44.946,19.3,9.316,32.422-7.06,8.534-20.887,4.2-24.489S599,214.179,599,187.707s-10.068-81.477-12.585-95-21.428-44.125-50.7-28.588c0,0-42.786-37.535-71.555,0S444.2,118.48,444.2,118.48s-7.7,32.816-5.922,61.825c1.451,23.721,12.476,44.069,12.215,48.721-.578,10.344-15.185,13.188-17.639,18.11s1.278,20.4,9.46,24.467S464.964,284.54,470,274.056s10.776-35.222,6.332-40.716-16.126-66.059-12.172-85.621c3.425-16.949,23.835-63.085,55.166-59.853,4.831.5,12.344,12.344,12.344,12.344" transform="translate(408.252 44.815)"/>
        <path id="Path_344" data-name="Path 344" d="M251.088,292.257A36.529,36.529,0,0,0,281.6,282.9" transform="translate(237.226 267.279)" fill="#fff"/>
        <path id="Path_345" data-name="Path 345" d="M256.685,294.065a28.209,28.209,0,0,1-5.706-.508l.42-1.9a35.9,35.9,0,0,0,29.65-9.133l1.307,1.441a37.835,37.835,0,0,1-25.671,10.1" transform="translate(237.123 266.93)"/>
        <path id="Path_346" data-name="Path 346" d="M355.316,302.715s-23.057-5.589-25.65-16.548" transform="translate(311.466 270.369)" fill="#fff"/>
        <path id="Path_347" data-name="Path 347" d="M355.545,303.771c-.965-.235-23.666-5.863-26.366-17.272l1.892-.447c2.427,10.261,24.707,15.774,24.932,15.827Z" transform="translate(311.006 270.26)"/>
        <path id="Path_348" data-name="Path 348" d="M447.763,289.247l-198.542-5.115a1.907,1.907,0,0,1-1.82-1.385l-5-19.236a1.851,1.851,0,0,1,1.947-2.25l209.936,7.758a1.829,1.829,0,0,1,1.737,2.437l-6.395,16.595a1.93,1.93,0,0,1-1.865,1.2" transform="translate(228.967 246.837)" fill="#f50"/>
        <path id="Path_349" data-name="Path 349" d="M575.6,228.752l-128.71,4.1a2.305,2.305,0,0,0-2.18,1.828l-2.929,13.94a2.3,2.3,0,0,0,2.359,2.775L579.47,245.21a2.3,2.3,0,0,0,2.093-2.985l-3.7-11.857a2.3,2.3,0,0,0-2.271-1.616" transform="translate(417.34 216.122)" fill="#f50"/>
        <path id="Path_350" data-name="Path 350" d="M316.565,289.328H296.3a3.927,3.927,0,0,1-3.927-3.927V265.14a3.927,3.927,0,0,1,3.927-3.928h20.261a3.927,3.927,0,0,1,3.927,3.928V285.4a3.927,3.927,0,0,1-3.927,3.927" transform="translate(276.237 246.791)"/>
        <path id="Path_351" data-name="Path 351" d="M57.641,450.288H37.381a3.927,3.927,0,0,1-3.927-3.927V426.1a3.927,3.927,0,0,1,3.927-3.928H57.641a3.927,3.927,0,0,1,3.927,3.928v20.261a3.927,3.927,0,0,1-3.927,3.927" transform="translate(31.607 398.865)" fill="#fff"/>
        <path id="Path_352" data-name="Path 352" d="M643.4,534.471l-4.467-1.98a3.928,3.928,0,0,1-2-5.183l1.98-4.465a3.926,3.926,0,0,1,5.181-2l4.467,1.98a3.928,3.928,0,0,1,2,5.183l-1.98,4.465a3.926,3.926,0,0,1-5.181,2" transform="translate(601.45 491.771)" fill="#fff"/>
        <path id="Path_353" data-name="Path 353" d="M496.443,255.309H476.182a3.927,3.927,0,0,1-3.927-3.927V231.12a3.927,3.927,0,0,1,3.927-3.927h20.261a3.927,3.927,0,0,1,3.927,3.927v20.263a3.927,3.927,0,0,1-3.927,3.927" transform="translate(446.184 214.65)" fill="#fff"/>
        <rect id="Rectangle_37" data-name="Rectangle 37" width="40.391" height="1.945" transform="translate(630.486 333.057)" fill="#fff"/>
      </g>
    </g>
  </g>
</svg>
