<svg id="Group_14" data-name="Group 14" xmlns="http://www.w3.org/2000/svg" xmlns:xlink="http://www.w3.org/1999/xlink" width="336" height="278" viewBox="0 0 336 278">
  <defs>
    <clipPath id="clip-path">
      <rect id="Rectangle_38" data-name="Rectangle 38" width="336" height="278" fill="none"/>
    </clipPath>
  </defs>
  <g id="Group_3" data-name="Group 3" clip-path="url(#clip-path)">
    <path id="Path_203" data-name="Path 203" d="M310.2,0a8,8,0,0,1-.27,2.477s1.833.411,1.775.048A4.228,4.228,0,0,0,310.2,0" transform="translate(-153.995 0)"/>
    <path id="Path_204" data-name="Path 204" d="M314.073.912c-.77.9-2.545,1.654-2.663,2.529,0,0-1.867-.924-1.405-1.237A7.353,7.353,0,0,1,314.073.912" transform="translate(-153.995 -0.455)"/>
    <path id="Path_205" data-name="Path 205" d="M507.881,417.361h5.757l-7.265-128.968L488.084,300.6Z" transform="translate(-242.512 -144.023)" fill="#fff"/>
    <path id="Path_206" data-name="Path 206" d="M513.633,417.159H507.4L487.538,300.03l.135-.09,18.655-12.451.025.439Zm-5.811-.5H513.1l-7.225-128.265-17.787,11.871Z" transform="translate(-242.241 -143.571)"/>
    <path id="Path_207" data-name="Path 207" d="M454.074,418.374h-4.9L432.694,290.422s23.8,7.692,23.539,13.63c-2.5,56.67-2.159,114.322-2.159,114.322" transform="translate(-214.991 -145.036)" fill="#fff"/>
    <path id="Path_208" data-name="Path 208" d="M454.03,418.265h-5.378l-.028-.219L432.1,289.7l.378.122c.979.316,23.981,7.82,23.714,13.879-2.473,56.015-2.163,113.734-2.159,114.31Zm-4.934-.5h4.428c-.02-4.221-.229-59.946,2.161-114.083.233-5.282-19.954-12.241-22.989-13.256Z" transform="translate(-214.694 -144.676)"/>
    <path id="Path_209" data-name="Path 209" d="M447.552,545.585a9.817,9.817,0,0,1,19.634,0" transform="translate(-222.373 -267.585)"/>
    <path id="Path_210" data-name="Path 210" d="M522.78,545.585a9.817,9.817,0,0,1,19.634,0" transform="translate(-259.752 -267.585)"/>
    <path id="Path_211" data-name="Path 211" d="M526.823,191.735a81.539,81.539,0,0,1-1.89,36.491,8.191,8.191,0,0,1,4.164,6.419c.572,4.206-2.719,8.9-5.106,9.158-4.891.522-3.656-3.55-4.228-7.756a8.54,8.54,0,0,1,1.731-6.731c.094-3.311-1.77-30.239-7.273-47.326-4.319-13.411-8-21.156-5.357-22.211,7.609-3.043,15.453,18.077,17.959,31.956" transform="translate(-252.396 -79.646)" fill="#fff"/>
    <path id="Path_212" data-name="Path 212" d="M522.954,243.85a3.339,3.339,0,0,1-2.254-.683c-1.082-.928-1.152-2.641-1.233-4.626-.036-.879-.073-1.787-.2-2.708a8.831,8.831,0,0,1,1.731-6.86c.052-3.5-1.79-30.159-7.264-47.154-1.072-3.33-2.1-6.3-3.012-8.928-2.84-8.2-4.4-12.709-2.2-13.592a4.533,4.533,0,0,1,4.019.363c6.543,3.6,12.29,20.753,14.281,31.78a81.8,81.8,0,0,1-1.834,36.406,8.49,8.49,0,0,1,4.111,6.515,10.164,10.164,0,0,1-2.2,7.271,5.178,5.178,0,0,1-3.128,2.171,7.832,7.832,0,0,1-.819.046m-12.835-84.362a3.759,3.759,0,0,0-1.406.275c-1.762.7-.072,5.582,2.487,12.964.911,2.626,1.942,5.6,3.017,8.939,5.54,17.2,7.372,44.285,7.285,47.409l0,.09-.059.068a8.292,8.292,0,0,0-1.672,6.533c.129.946.167,1.866.2,2.755.076,1.868.142,3.481,1.059,4.267a3.467,3.467,0,0,0,2.69.519,4.782,4.782,0,0,0,2.786-1.981,9.65,9.65,0,0,0,2.1-6.895,8.006,8.006,0,0,0-4.023-6.226l-.2-.093.065-.208a81.09,81.09,0,0,0,1.882-36.372C524.356,180.6,518.7,163.622,512.3,160.1a4.506,4.506,0,0,0-2.182-.612" transform="translate(-252.151 -79.396)" fill="#231f20"/>
    <path id="Path_213" data-name="Path 213" d="M408.09,196.9c-1.9,18.106,4.677,31.42,6.022,34.821a8.184,8.184,0,0,0-3.678,6.707c-.258,4.237,3.372,8.68,5.771,8.759,4.916.162,3.383-3.808,3.642-8.045a8.547,8.547,0,0,0-2.225-6.586c-.339-3.3-3.712-31.4,3.746-47.73,5.856-12.82,6.408-21.685,3.7-22.544-7.815-2.476-15.5,20.594-16.976,34.619" transform="translate(-202.596 -80.951)" fill="#fff"/>
    <path id="Path_214" data-name="Path 214" d="M416.238,247.194c-.094,0-.19,0-.289,0a5.183,5.183,0,0,1-3.279-1.934,10.17,10.17,0,0,1-2.735-7.09,8.488,8.488,0,0,1,3.616-6.8c-.11-.268-.245-.586-.4-.952a66.894,66.894,0,0,1-5.56-33.788c1.171-11.172,6.578-29.751,13.291-34.119a4.594,4.594,0,0,1,4.011-.712,2.1,2.1,0,0,1,1.242,1.247c1.254,2.809.261,10.59-4.786,21.639-6.218,13.612-5.035,35.365-3.776,47.119l.042.393a8.838,8.838,0,0,1,2.235,6.716c-.056.928-.027,1.837,0,2.716.066,1.984.123,3.7-.888,4.7a3.708,3.708,0,0,1-2.728.866m7.41-85.092a4.565,4.565,0,0,0-2.49.824c-6.335,4.123-11.88,22.437-13.066,33.752a66.4,66.4,0,0,0,5.523,33.542c.2.466.361.854.483,1.162l.08.2-.19.107a8,8,0,0,0-3.551,6.5,9.661,9.661,0,0,0,2.6,6.723,4.781,4.781,0,0,0,2.924,1.77,3.483,3.483,0,0,0,2.644-.714c.856-.852.8-2.465.74-4.333-.03-.891-.06-1.811,0-2.763a8.3,8.3,0,0,0-2.151-6.393l-.064-.063-.06-.569c-1.264-11.806-2.449-33.659,3.818-47.38,4.983-10.907,5.994-18.521,4.785-21.228a1.622,1.622,0,0,0-.935-.973,3.6,3.6,0,0,0-1.093-.171" transform="translate(-202.348 -80.702)" fill="#231f20"/>
    <rect id="Rectangle_14" data-name="Rectangle 14" width="33.833" height="48.744" transform="translate(222.368 36.927)"/>
    <path id="Path_215" data-name="Path 215" d="M480.5,155.966H465.826v-38.88H476.61v11.2Z" transform="translate(-231.453 -58.472)" fill="#fff"/>
    <path id="Path_216" data-name="Path 216" d="M480.539,155.968H465.326V116.587h11.287v11.45Zm-14.71-.5H479.96l-3.848-27.4,0-10.984H465.829Z" transform="translate(-231.205 -58.223)"/>
    <path id="Path_217" data-name="Path 217" d="M474.62,68.264s2.992,17.821,0,24.4c-1.114,2.449-6.131,5.447-11.115,5.483-5.042.036-10.05-2.919-10.949-5.483-3.366-9.6,0-24.4,0-24.4a29.156,29.156,0,0,1,1.3-4.015c.229-.046,10.9-.884,11.987-.914s4.277,1.6,5.078,1.828,3.7,3.1,3.7,3.1" transform="translate(-224.116 -31.629)" fill="#fff"/>
    <path id="Path_218" data-name="Path 218" d="M463.176,98.148c-5.14,0-10.173-3.024-11.095-5.651-3.351-9.554-.042-24.39-.008-24.539,1.117-4.129,1.329-4.172,1.5-4.206.229-.046,10.881-.887,12.029-.918h.035a13.861,13.861,0,0,1,3.751,1.282c.6.261,1.122.487,1.368.557.839.239,3.5,2.866,3.8,3.164l.057.058.013.079c.123.731,2.971,17.971-.019,24.545-1.17,2.575-6.38,5.595-11.342,5.63h-.094m-9.423-33.914a36.942,36.942,0,0,0-1.191,3.844c-.031.137-3.308,14.836-.005,24.253.85,2.422,5.763,5.316,10.622,5.316h.088c4.782-.034,9.779-2.9,10.888-5.336,2.826-6.215.2-22.879-.006-24.177a19.939,19.939,0,0,0-3.53-2.981c-.279-.08-.787-.3-1.43-.579a14.214,14.214,0,0,0-3.571-1.238c-1.03.028-10.8.794-11.863.9" transform="translate(-223.879 -31.379)"/>
    <path id="Path_219" data-name="Path 219" d="M463.459,98.546a1.572,1.572,0,1,1-1.572-1.563,1.568,1.568,0,0,1,1.572,1.563" transform="translate(-228.715 -48.433)"/>
    <path id="Path_220" data-name="Path 220" d="M488.17,98.546a1.571,1.571,0,1,1-1.571-1.563,1.567,1.567,0,0,1,1.571,1.563" transform="translate(-240.993 -48.433)"/>
    <path id="Path_221" data-name="Path 221" d="M462.184,89.724c2.1.173,1.159,1.506.3,1.088-2.249-1.1-6.514.576-7.314.82s2.1-2.312,7.01-1.908" transform="translate(-226.095 -44.786)"/>
    <path id="Path_222" data-name="Path 222" d="M481.353,88.513c-2.016.618-.806,1.719-.062,1.128,1.96-1.555,6.486-.83,7.321-.763s-2.553-1.808-7.259-.365" transform="translate(-238.618 -43.93)"/>
    <path id="Path_223" data-name="Path 223" d="M474.944,119.6a5.614,5.614,0,0,1-2.829-1.153l-.182-.118.273-.421.185.12a5.237,5.237,0,0,0,2.552,1.071,4.615,4.615,0,0,0,2.221-.884c.189-.116.367-.226.532-.316l.242.439c-.157.086-.328.191-.51.3a4.987,4.987,0,0,1-2.485.959" transform="translate(-234.488 -58.877)"/>
    <path id="Path_224" data-name="Path 224" d="M482.376,50.956a8,8,0,0,1-.27,2.477s1.833.411,1.775.048a4.228,4.228,0,0,0-1.505-2.526" transform="translate(-239.542 -25.447)"/>
    <path id="Path_225" data-name="Path 225" d="M486.247,51.868c-.77.9-2.545,1.655-2.663,2.529,0,0-1.867-.924-1.405-1.237a7.353,7.353,0,0,1,4.068-1.292" transform="translate(-239.542 -25.902)"/>
    <rect id="Rectangle_15" data-name="Rectangle 15" width="1.439" height="0.501" transform="translate(238.699 50.602)"/>
    <path id="Path_226" data-name="Path 226" d="M451.5,98.59l-1.283-2.25.437-.247,1.282,2.25Z" transform="translate(-223.7 -47.988)"/>
    <path id="Path_374" data-name="Path 374" d="M0,0,2.193,0v.5L0,.5Z" transform="translate(250.59 50.188) rotate(-62.538)"/>
    <path id="Path_227" data-name="Path 227" d="M458.342,101.936c-1.963,0-3.928-.4-4.783-1.2a4.645,4.645,0,0,1-.846-3.276,3.161,3.161,0,0,1,.866-2.332c1.931-1.466,7.18-.662,9.421-.042.306.085.715.359.925,1.187.365,1.441-.055,3.734-.818,4.461-.841.8-2.8,1.2-4.765,1.2m-1.1-7.129a5.98,5.98,0,0,0-3.361.716,2.769,2.769,0,0,0-.668,1.96,4.214,4.214,0,0,0,.688,2.886c1.546,1.45,7.338,1.45,8.855,0h0c.634-.606,1-2.725.678-3.978-.083-.328-.25-.739-.572-.827a23.5,23.5,0,0,0-5.621-.758" transform="translate(-224.933 -47.091)"/>
    <path id="Path_228" data-name="Path 228" d="M482.2,101.785c-1.965,0-3.925-.4-4.766-1.2-.738-.7-1.033-2.6-.846-3.921a2.155,2.155,0,0,1,.9-1.709c2.255-1.182,7.632-1.373,9.472.023a3.16,3.16,0,0,1,.865,2.33,4.724,4.724,0,0,1-.845,3.278c-.855.8-2.821,1.2-4.783,1.2m.393-7.294a11.7,11.7,0,0,0-4.868.9,1.768,1.768,0,0,0-.639,1.336,4.934,4.934,0,0,0,.7,3.49h0c1.517,1.449,7.31,1.448,8.855,0a4.211,4.211,0,0,0,.687-2.887,2.76,2.76,0,0,0-.667-1.959,7.431,7.431,0,0,0-4.064-.881" transform="translate(-236.774 -46.94)"/>
    <path id="Path_229" data-name="Path 229" d="M476.5,111.467a2.841,2.841,0,0,1-1.129-.212l.214-.453a2.216,2.216,0,0,0,1.62.026l.3.4a1.787,1.787,0,0,1-1.007.238" transform="translate(-236.198 -55.334)"/>
    <path id="Path_230" data-name="Path 230" d="M567.326,497.911s-6.219-1.446-5.549-7.008.112-15.8-5.814-15.129-.895,4-.112,4.116,3.466,6.452,2.46,11.013,5.031,11.347,8.162,10.679.852-3.671.852-3.671" transform="translate(-274.824 -237.583)"/>
    <path id="Path_231" data-name="Path 231" d="M464.232,173.255c.761,2.2,1.645,3.729,3.345,3.786,5.621.189,13.853-4.581,9.919-9.206-4.451-5.233-8.729-20.966-14.221-21.644-3.633-3.081-13.72-5.385-13.72-5.385l-4.412,21.871L439.211,141.1s-15.644,2.051-15.753,5.471c-4.653,4.062-9.125,15.652-11.354,20.564-2.5,5.522,4.758,9.269,10.374,8.964,1.419-.076,2.247-1.163,2.9-2.81a12.264,12.264,0,0,0,2.8,1.955c.288.152,1.439,6.163-.447,13.424-1.538,5.921-6.165,12.327-6.149,19.913.057,27.175,7.061,60.01,7.061,60.01l43.108-18.775a328.61,328.61,0,0,0-2.991-40.789c-.828-5.586-4.649-11.058-5.9-15.926a45.345,45.345,0,0,1-1.142-16.956,10.2,10.2,0,0,0,2.517-2.893" transform="translate(-204.508 -70.318)"/>
    <path id="Path_232" data-name="Path 232" d="M15.048,346.827c-.526-1.075-3.077-1.7-4.084-1.315C4.6,347.923,1.686,358.254.617,364.69s5.5,6.575,5.206,12.722c-.2,4.148,9.249.281,5.912-9.139-1.175-3.316-.411-6.693.727-9.865" transform="translate(-0.248 -172.491)"/>
    <path id="Path_233" data-name="Path 233" d="M7.089,379.072a2.023,2.023,0,0,1-.866-.179,1.688,1.688,0,0,1-.9-1.741c.134-2.844-1.219-4.317-2.651-5.876C1.135,369.6-.455,367.869.121,364.4c.82-4.938,3.486-16.711,10.506-19.37,1.084-.414,3.8.206,4.4,1.439l-.452.219c-.446-.911-2.821-1.55-3.768-1.19C4.03,348.066,1.423,359.63.617,364.482c-.537,3.229.9,4.8,2.427,6.456,1.438,1.566,2.925,3.185,2.781,6.237a1.231,1.231,0,0,0,.612,1.264c.794.373,2.125-.062,3.236-1.06.865-.776,3.536-3.74,1.576-9.272-1.264-3.569-.276-7.236.727-10.032l.473.168c-1.035,2.886-1.931,6.3-.726,9.7,2.062,5.825-.79,8.981-1.714,9.81a4.651,4.651,0,0,1-2.922,1.321" transform="translate(0 -172.243)" fill="#fff"/>
    <path id="Path_234" data-name="Path 234" d="M148.2,456.678c0,7.239-.665,38.406-6.617,41.453-10.363,5.306-1.177-27.86-17.623-41.453-5.6-4.626,5.426-13.107,12.119-13.107s12.12,5.868,12.12,13.107" transform="translate(-60.83 -221.517)"/>
    <path id="Path_235" data-name="Path 235" d="M139.362,498.7a2.457,2.457,0,0,1-1.181-.289c-2.212-1.184-2.732-5.96-3.39-12-1.035-9.506-2.452-22.526-11.239-29.788a4.053,4.053,0,0,1-1.315-4.835c1.508-4.154,8.623-8.715,13.6-8.715,6.822,0,12.372,5.992,12.372,13.358,0,1.56-.076,38.257-6.754,41.675a4.674,4.674,0,0,1-2.089.6m-3.529-55.132c-4.8,0-11.672,4.388-13.122,8.385a3.549,3.549,0,0,0,1.163,4.28c8.944,7.392,10.374,20.528,11.418,30.12.642,5.9,1.149,10.557,3.128,11.617a2.978,2.978,0,0,0,2.8-.314c5.125-2.625,6.48-28.117,6.48-41.23,0-7.09-5.324-12.858-11.868-12.858" transform="translate(-60.582 -221.268)" fill="#fff"/>
    <path id="Path_236" data-name="Path 236" d="M104.155,411.4c2.315,3.365,7.781,14.4,4.4,19.62-3.66,5.648-16.518,5.439-22.918,7.484-15.614,4.991-36.855,8.769-50.309,6.963a23.082,23.082,0,0,1-14.748-8.1c-13.253-10.7,1.087-39.388,1.087-39.388l16.836-1.91s7.038,11.879,26.235,14.261c8.352,1.036,33.769-7.143,39.418,1.067" transform="translate(-7.432 -197.798)"/>
    <path id="Path_237" data-name="Path 237" d="M42.828,445.918a58.7,58.7,0,0,1-7.738-.467,23.279,23.279,0,0,1-14.635-7.886c-.121-.139-.2-.231-.239-.265-13.255-10.707.878-39.4,1.022-39.693l.061-.122.135-.016,17-1.928.083.14c.07.118,7.209,11.8,26.05,14.14,2.747.34,7.3-.319,12.58-1.083,10.317-1.493,23.156-3.351,27.014,2.257,2.379,3.456,7.84,14.593,4.4,19.9-2.587,3.992-9.579,5.114-15.748,6.1a54.359,54.359,0,0,0-7.3,1.484c-12.49,3.992-29.353,7.439-42.682,7.439m-21.2-47.966c-.99,2.046-13.6,28.856-1.095,38.96a3.232,3.232,0,0,1,.3.325,22.787,22.787,0,0,0,14.322,7.718C49,446.811,70.339,442.8,85.355,438a54.619,54.619,0,0,1,7.379-1.5c6.065-.972,12.939-2.075,15.4-5.879,3.3-5.091-2.067-15.96-4.394-19.343-3.681-5.349-16.349-3.516-26.527-2.043-5.314.769-9.905,1.432-12.714,1.084-17.975-2.23-25.455-12.895-26.333-14.243Z" transform="translate(-7.229 -197.532)" fill="#fff"/>
    <path id="Path_238" data-name="Path 238" d="M213.106,129.137c-17.825,4.9-19.525,16.6-20.288,41.459a108.209,108.209,0,0,0,6.587,41.322c-2.422,1.3-4.244,4.276-4.5,7.852-.353,4.98,5.528,9.853,8.377,10.355,8.523,1.5,5.12-4.446,5.474-9.426a9.9,9.9,0,0,0-2.616-7.766c-.375-3.879-2.774-36.369,4.985-56.1,7.735-19.669,7.848-29.315,1.979-27.7" transform="translate(-95.778 -64.404)" fill="#fff"/>
    <path id="Path_239" data-name="Path 239" d="M205.4,230.364a14.006,14.006,0,0,1-2.407-.243c-3.076-.543-8.947-5.514-8.584-10.619a9.865,9.865,0,0,1,4.434-7.946,108.475,108.475,0,0,1-6.525-41.219c.793-25.842,2.867-36.848,20.473-41.692l.067.241-.067-.241a3.043,3.043,0,0,1,3.294.687c2.6,2.869.835,12.581-4.972,27.347-8.035,20.427-5.157,53.91-4.977,55.89a10.186,10.186,0,0,1,2.625,7.9,20.82,20.82,0,0,0,.189,3.7c.24,2.174.466,4.226-.736,5.345a3.972,3.972,0,0,1-2.814.852m8.624-101.4a4.154,4.154,0,0,0-1.1.164c-17.28,4.754-19.318,15.646-20.1,41.226a107.655,107.655,0,0,0,6.569,41.222l.082.207-.2.1c-2.415,1.3-4.129,4.3-4.366,7.651-.351,4.935,5.553,9.629,8.17,10.091,2.419.426,3.984.269,4.79-.482,1.018-.949.815-2.791.58-4.925a21.2,21.2,0,0,1-.191-3.791,9.648,9.648,0,0,0-2.541-7.57l-.066-.064-.009-.091c-.034-.349-3.282-35.15,5-56.211,5.651-14.367,7.5-24.146,5.068-26.828a2.173,2.173,0,0,0-1.688-.7" transform="translate(-95.53 -64.152)" fill="#231f20"/>
    <path id="Path_240" data-name="Path 240" d="M349.889,144.172c17.825,4.9,19.525,16.6,20.288,41.459a108.21,108.21,0,0,1-6.587,41.322c2.422,1.3,4.244,4.276,4.5,7.852.353,4.98-5.528,9.853-8.377,10.355-8.523,1.5-5.12-4.446-5.474-9.426a9.9,9.9,0,0,1,2.616-7.766c.375-3.879,2.774-36.369-4.985-56.1-7.735-19.669-7.848-29.315-1.979-27.7" transform="translate(-171.79 -71.912)" fill="#fff"/>
    <path id="Path_241" data-name="Path 241" d="M357.093,245.4a3.972,3.972,0,0,1-2.814-.852c-1.2-1.119-.976-3.172-.736-5.345a20.82,20.82,0,0,0,.189-3.7,10.19,10.19,0,0,1,2.625-7.9c.18-1.981,3.058-35.463-4.977-55.891-5.807-14.765-7.573-24.477-4.972-27.346a3.043,3.043,0,0,1,3.294-.686c17.607,4.844,19.68,15.851,20.473,41.692a108.467,108.467,0,0,1-6.525,41.219,9.867,9.867,0,0,1,4.435,7.947c.362,5.105-5.509,10.077-8.585,10.619a14,14,0,0,1-2.407.243M348.469,144a2.173,2.173,0,0,0-1.688.7c-2.43,2.682-.583,12.461,5.068,26.828,8.283,21.06,5.034,55.862,5,56.211l-.009.091-.066.064a9.654,9.654,0,0,0-2.541,7.57,21.2,21.2,0,0,1-.191,3.791c-.235,2.134-.438,3.977.58,4.925.806.75,2.371.907,4.79.482,2.617-.462,8.521-5.156,8.17-10.091-.237-3.349-1.951-6.352-4.366-7.651l-.2-.1.082-.207a107.653,107.653,0,0,0,6.569-41.223c-.785-25.58-2.823-36.471-20.1-41.226a4.175,4.175,0,0,0-1.1-.163" transform="translate(-171.537 -71.661)" fill="#231f20"/>
    <rect id="Rectangle_17" data-name="Rectangle 17" width="7.379" height="21.211" transform="translate(127.401 256.032)" fill="#fff"/>
    <path id="Path_242" data-name="Path 242" d="M260.6,532.658h-7.883V510.946H260.6Zm-7.379-.5H260.1v-20.71h-6.876Z" transform="translate(-125.566 -255.164)"/>
    <rect id="Rectangle_18" data-name="Rectangle 18" width="7.379" height="21.211" transform="translate(154.802 256.032)" fill="#fff"/>
    <path id="Path_243" data-name="Path 243" d="M315.058,532.658h-7.882V510.946h7.882Zm-7.379-.5h6.876v-20.71h-6.876Z" transform="translate(-152.625 -255.164)"/>
    <path id="Path_244" data-name="Path 244" d="M290.324,205.8a27.417,27.417,0,0,0-38.636,0A27.087,27.087,0,0,0,247.579,239l-2,120.449h12.955l11.179-99.544,1.805,99.544h14.928l8.017-120.491a27.088,27.088,0,0,0-4.137-33.165" transform="translate(-121.081 -98.798)" fill="#fff"/>
    <path id="Path_245" data-name="Path 245" d="M286.411,359.453H271l-1.739-95.924-10.773,95.924H245.053l0-.254,2-120.377a27.522,27.522,0,1,1,47.382-.033Zm-14.916-.5H285.94l8-120.318.032-.052a27.021,27.021,0,1,0-46.451.042l.037.062v.071l-2,120.195h12.474l11.153-99.321.5.024Z" transform="translate(-120.813 -98.548)"/>
    <path id="Path_246" data-name="Path 246" d="M297.3,117.408H270.162l4.213-34.027h18.712Z" transform="translate(-134.234 -41.64)" fill="#fff"/>
    <path id="Path_247" data-name="Path 247" d="M297.3,117.409H269.6l4.275-34.528h19.157Zm-27.139-.5h26.57l-4.151-33.526H274.316Z" transform="translate(-133.953 -41.39)"/>
    <path id="Path_248" data-name="Path 248" d="M262.326,55.52a3.76,3.76,0,1,1-3.76-3.742,3.751,3.751,0,0,1,3.76,3.742" transform="translate(-126.604 -25.858)" fill="#fff"/>
    <path id="Path_249" data-name="Path 249" d="M258.316,59.262a3.992,3.992,0,1,1,4.012-3.992,4.007,4.007,0,0,1-4.012,3.992m0-7.483a3.491,3.491,0,1,0,3.509,3.491,3.5,3.5,0,0,0-3.509-3.491" transform="translate(-126.355 -25.608)"/>
    <path id="Path_250" data-name="Path 250" d="M262.3,57.633a1.631,1.631,0,1,1-1.631-1.622,1.627,1.627,0,0,1,1.631,1.622" transform="translate(-128.707 -27.972)" fill="#fff"/>
    <path id="Path_251" data-name="Path 251" d="M260.42,59.256a1.873,1.873,0,1,1,1.882-1.873,1.879,1.879,0,0,1-1.882,1.873m0-3.245a1.372,1.372,0,1,0,1.379,1.372,1.377,1.377,0,0,0-1.379-1.372" transform="translate(-128.459 -27.721)" fill="#231f20"/>
    <path id="Path_252" data-name="Path 252" d="M328.462,55.52a3.76,3.76,0,1,1-3.76-3.742,3.751,3.751,0,0,1,3.76,3.742" transform="translate(-159.465 -25.858)" fill="#fff"/>
    <path id="Path_253" data-name="Path 253" d="M324.452,59.262a3.992,3.992,0,1,1,4.012-3.992,4.007,4.007,0,0,1-4.012,3.992m0-7.483a3.491,3.491,0,1,0,3.509,3.491,3.5,3.5,0,0,0-3.509-3.491" transform="translate(-159.216 -25.608)"/>
    <path id="Path_254" data-name="Path 254" d="M328.434,57.633a1.631,1.631,0,1,1-1.631-1.622,1.627,1.627,0,0,1,1.631,1.622" transform="translate(-161.567 -27.972)" fill="#fff"/>
    <path id="Path_255" data-name="Path 255" d="M326.556,59.256a1.873,1.873,0,1,1,1.882-1.873,1.879,1.879,0,0,1-1.882,1.873m0-3.245a1.372,1.372,0,1,0,1.379,1.372,1.377,1.377,0,0,0-1.379-1.372" transform="translate(-161.319 -27.721)" fill="#231f20"/>
    <path id="Path_256" data-name="Path 256" d="M294.232,18.665s3.84,22.879,0,31.326c-1.43,3.145-7.872,6.993-14.27,7.039-6.473.047-12.9-3.747-14.057-7.039-4.32-12.319,0-31.326,0-31.326s1.38-5.1,1.674-5.155,14-1.135,15.389-1.173,5.49,2.053,6.519,2.347,4.745,3.981,4.745,3.981" transform="translate(-131.165 -6.161)" fill="#fff"/>
    <path id="Path_257" data-name="Path 257" d="M279.608,57.031c-6.569,0-13-3.856-14.175-7.208-4.3-12.245-.052-31.273-.008-31.463,1.422-5.256,1.692-5.309,1.87-5.345.291-.058,13.952-1.137,15.431-1.178,1.013-.019,3.119.9,4.829,1.637.775.336,1.445.627,1.766.719,1.06.3,4.468,3.662,4.854,4.044l.057.057.014.079c.157.937,3.809,23.05-.019,31.47-1.494,3.286-8.152,7.142-14.5,7.187h-.12M267.466,13.5a44.48,44.48,0,0,0-1.553,4.983c-.04.18-4.253,19.07-.006,31.178,1.121,3.2,7.332,6.873,13.7,6.873h.118c6.164-.045,12.611-3.742,14.043-6.893,3.653-8.035.236-29.616-.006-31.1-1.481-1.464-3.88-3.661-4.58-3.861-.353-.1-1-.383-1.829-.741a18.351,18.351,0,0,0-4.58-1.6h-.034c-1.381.038-14.106,1.038-15.273,1.16" transform="translate(-130.93 -5.911)"/>
    <path id="Path_258" data-name="Path 258" d="M280.676,55.79a1.861,1.861,0,1,1-1.861-1.851,1.856,1.856,0,0,1,1.861,1.851" transform="translate(-137.609 -26.937)"/>
    <path id="Path_259" data-name="Path 259" d="M309.94,55.79a1.861,1.861,0,1,1-1.861-1.851,1.856,1.856,0,0,1,1.861,1.851" transform="translate(-152.149 -26.937)"/>
    <path id="Path_260" data-name="Path 260" d="M278.061,38.723c2.813-.184,2.036,2.64.749,2.7s-8.6.946-9.6,1.457,2.29-3.726,8.855-4.155" transform="translate(-133.671 -19.334)"/>
    <path id="Path_261" data-name="Path 261" d="M303.577,39.821c-2.815-.147-2,2.667-.713,2.708s8.61.833,9.622,1.331-2.34-3.695-8.909-4.038" transform="translate(-149.896 -19.884)"/>
    <path id="Path_262" data-name="Path 262" d="M295.786,93.809c1.354,1.163,1.354,4.653,0,5.816a3.88,3.88,0,0,1-4.9,0c-1.354-1.163-1.354-4.653,0-5.816a3.88,3.88,0,0,1,4.9,0" transform="translate(-144.026 -46.412)"/>
    <path id="Path_263" data-name="Path 263" d="M293.214,78.6a6.277,6.277,0,0,1-3.513-.884l.3-.4c1.453,1.055,4.928,1.05,6.643-.011l.265.426a7.346,7.346,0,0,1-3.691.873" transform="translate(-143.943 -38.606)"/>
    <path id="Path_264" data-name="Path 264" d="M297.814,71.123c-.059,0-.1,0-.122,0l.024-.5c.362.013,1.051-.064,1.1-.327a6.848,6.848,0,0,0-.463-2.158l.476-.163a7.312,7.312,0,0,1,.48,2.418c-.134.669-1.133.732-1.5.732" transform="translate(-147.913 -33.945)"/>
    <path id="Path_265" data-name="Path 265" d="M263.413,22.138s-.587,10.935-1.054,12.507,1.28,2.264,1.28,2.264l3.13-15.959Z" transform="translate(-130.318 -10.462)"/>
    <path id="Path_266" data-name="Path 266" d="M324.068,21.065s.587,11.317,1.054,12.944a2.042,2.042,0,0,1-1.28,2.343l-3.13-16.516Z" transform="translate(-159.351 -9.906)"/>
    <path id="Path_267" data-name="Path 267" d="M295.194,12.858c-2.9,3.245,2.477-3.668-16.1-3.668-16.673,0-12.02,7.1-14.825,3.736C260.872,8.85,267.139,0,279.492,0c12.566,0,19.1,9.059,15.7,12.857" transform="translate(-130.85 0)"/>
    <path id="Path_268" data-name="Path 268" d="M295.067,14.544c0,1.8-4.083,3.254-9.12,3.254s-9.121-1.457-9.121-3.254,4.083-3.253,9.121-3.253,9.12,1.456,9.12,3.253" transform="translate(-137.545 -5.639)"/>
    <path id="Path_269" data-name="Path 269" d="M282.006,96.6l-.5-.047a7.988,7.988,0,0,1,.627-2.408l.45.224a7.607,7.607,0,0,0-.577,2.231" transform="translate(-139.87 -47.015)"/>
    <path id="Path_375" data-name="Path 375" d="M0,0,1.728,0v.5L0,.5Z" transform="translate(139.108 48.063) rotate(-69.989)"/>
    <path id="Path_376" data-name="Path 376" d="M0,0,1.858,0v.5L0,.5Z" transform="translate(136.684 46.503) rotate(-51.744)"/>
    <path id="Path_377" data-name="Path 377" d="M0,0,1.982,0v.5L0,.5Z" transform="matrix(0.535, -0.845, 0.845, 0.535, 135.387, 45.199)"/>
    <path id="Path_378" data-name="Path 378" d="M0,0,1.8,0v.5L0,.5Z" transform="matrix(0.66, -0.752, 0.752, 0.66, 134.4, 43.218)"/>
    <path id="Path_379" data-name="Path 379" d="M0,0H.5l0,1.969H0Z" transform="matrix(0.986, -0.165, 0.165, 0.986, 154.149, 47.926)"/>
    <path id="Path_270" data-name="Path 270" d="M310.068,96.335l-.622-1.776.474-.165.622,1.776Z" transform="translate(-153.753 -47.14)"/>
    <path id="Path_380" data-name="Path 380" d="M0,0H.5l0,1.452H0Z" transform="translate(157.556 46.964) rotate(-21.35)"/>
    <path id="Path_381" data-name="Path 381" d="M0,0H.5l0,1.324H0Z" transform="matrix(0.715, -0.699, 0.699, 0.715, 158.993, 46.104)"/>
    <path id="Path_382" data-name="Path 382" d="M0,0H.5l0,1.65H0Z" transform="matrix(0.621, -0.784, 0.784, 0.621, 160.432, 44.693)"/>
    <path id="Path_383" data-name="Path 383" d="M0,0H.5l0,1.458H0Z" transform="matrix(0.771, -0.637, 0.637, 0.771, 161.941, 42.867)"/>
    <rect id="Rectangle_28" data-name="Rectangle 28" width="1.823" height="0.501" transform="translate(147.968 29.105)"/>
    <path id="Path_271" data-name="Path 271" d="M265.169,54.623,263.544,51.6l.443-.237,1.625,3.021Z" transform="translate(-130.946 -25.652)"/>
    <path id="Path_384" data-name="Path 384" d="M0,0,2.91.006v.5L0,.5Z" transform="translate(163.089 28.509) rotate(-63.948)"/>
    <path id="Path_272" data-name="Path 272" d="M273.8,59.133c-2.143,0-4.832-.424-6.031-1.617-.832-.827-1.124-2.839-1.043-4.359a4.279,4.279,0,0,1,1.063-3.033c2.428-1.953,9.055-.875,11.885-.046a1.828,1.828,0,0,1,1.1,1.447c.491,1.88-.028,5.015-.991,5.989-1.166,1.18-3.819,1.61-5.913,1.618Zm-1.427-9.608a7.168,7.168,0,0,0-4.268.989,3.905,3.905,0,0,0-.877,2.67c-.09,1.7.287,3.372.9,3.978.9.9,3.121,1.47,5.67,1.47h.071c2.543-.011,4.672-.573,5.557-1.469l.179.175-.179-.175c.833-.844,1.3-3.831.863-5.512-.112-.43-.334-.969-.755-1.092a28.656,28.656,0,0,0-7.158-1.034" transform="translate(-132.521 -24.483)"/>
    <path id="Path_273" data-name="Path 273" d="M304,58.93h-.069c-2.094-.009-4.747-.439-5.912-1.619-.923-.934-1.287-3.52-1.036-5.256a2.92,2.92,0,0,1,1.093-2.158c2.845-1.579,9.621-1.838,11.937.024a4.276,4.276,0,0,1,1.062,3.031c.081,1.52-.211,3.533-1.043,4.36-1.2,1.193-3.888,1.617-6.032,1.617m-5.623-1.97c.885.9,3.014,1.458,5.556,1.469H304c2.549,0,4.77-.575,5.67-1.471.61-.607.987-2.28.9-3.98a3.9,3.9,0,0,0-.876-2.668c-2.146-1.726-8.711-1.455-11.375.024a2.4,2.4,0,0,0-.841,1.792c-.259,1.793.17,4.1.9,4.834" transform="translate(-147.521 -24.279)"/>
    <path id="Path_274" data-name="Path 274" d="M293.052,162.885l-1.619-2.809-.014-2.755s-1.057-18.486-2.842-27.2c-1.15-5.615-18.817-20.359-24.863-20.367-5.542-2.577-12.315-5.126-12.315-5.126s-4.8,6.366-8.443,8.145c-1.312.207-2.114.336-2.114.336l-1.121-.3c-3.654-1.723-8.522-8.178-8.522-8.178s-4.351,1.607-8.921,3.563l-.957-.253c-.567.219-22.342,1.72-29.406,21.457s-5.434,19.548-5.324,21.613c0,0-1.426.439-1.7.576s-.12,2.741-.12,2.741l1.146,4.43,20.14,2.06.147-4.893,1.325-4.706c.627,5.27,1.431,10.031,2.087,13.479,1.185,6.225-.061,16.977,5.493,19.977,4.39,2.37,6.121.416,26.327.51,19.4.09,22.073,3.813,26.314,1.509,5.606-3.044,3.592-15.987,4.773-22.28.173-.921.359-1.937.554-3.029l.425.8-.068,1.556Z" transform="translate(-91.786 -52.252)"/>
    <path id="Path_275" data-name="Path 275" d="M217.44,541.882a13.547,13.547,0,0,1,27.094,0" transform="translate(-108.038 -263.882)"/>
    <path id="Path_276" data-name="Path 276" d="M17.787,547.493a7.9,7.9,0,0,1,15.79,0" transform="translate(-8.838 -269.493)"/>
    <path id="Path_277" data-name="Path 277" d="M61.015,547.493a7.9,7.9,0,0,1,15.79,0" transform="translate(-30.316 -269.493)"/>
    <path id="Path_278" data-name="Path 278" d="M137.884,547.493a7.9,7.9,0,0,1,15.79,0" transform="translate(-68.51 -269.493)"/>
    <path id="Path_279" data-name="Path 279" d="M181,547.493a7.9,7.9,0,0,1,15.79,0" transform="translate(-89.931 -269.493)"/>
    <path id="Path_280" data-name="Path 280" d="M301.74,541.882a13.547,13.547,0,0,1,27.094,0" transform="translate(-149.924 -263.882)"/>
    <rect id="Rectangle_30" data-name="Rectangle 30" width="0.515" height="72.019" transform="translate(149.263 60.992) rotate(-1.848)" fill="#fff"/>
    <path id="Path_281" data-name="Path 281" d="M298,151.694a1.331,1.331,0,1,1-1.331-1.325A1.328,1.328,0,0,1,298,151.694" transform="translate(-146.743 -75.094)" fill="#fff"/>
    <path id="Path_282" data-name="Path 282" d="M299.219,181.566a1.331,1.331,0,1,1-1.331-1.325,1.328,1.328,0,0,1,1.331,1.325" transform="translate(-147.349 -90.012)" fill="#fff"/>
    <path id="Path_283" data-name="Path 283" d="M300.438,211.437a1.331,1.331,0,1,1-1.331-1.325,1.328,1.328,0,0,1,1.331,1.325" transform="translate(-147.955 -104.929)" fill="#fff"/>
    <path id="Path_284" data-name="Path 284" d="M301.658,241.309a1.331,1.331,0,1,1-1.331-1.325,1.328,1.328,0,0,1,1.331,1.325" transform="translate(-148.561 -119.847)" fill="#fff"/>
    <path id="Path_285" data-name="Path 285" d="M281.39,111.877l-2.434,3.328L265.9,105.132l5.192-1.739Z" transform="translate(-132.119 -51.634)"/>
    <path id="Path_286" data-name="Path 286" d="M297.132,112.06l2.434,3.328,13.263-10.227-5.233-1.709Z" transform="translate(-147.635 -51.663)"/>
    <path id="Path_287" data-name="Path 287" d="M334.588,165.615H332.65v-4.3l.969-1.854.97,1.854Z" transform="translate(-165.282 -79.633)" fill="#f50"/>
    <path id="Path_288" data-name="Path 288" d="M340.211,165.615h-.894v-4.3l.447-1.854.447,1.854Z" transform="translate(-168.595 -79.633)" fill="#f50"/>
    <path id="Path_289" data-name="Path 289" d="M375.478,300.131h-8.753l-.639-6.229h10.622Z" transform="translate(-181.896 -146.773)"/>
    <path id="Path_290" data-name="Path 290" d="M538.35,290.429h-5.63l-.411-6.23h6.832Z" transform="translate(-264.486 -141.928)"/>
    <path id="Path_291" data-name="Path 291" d="M483.495,280.37c-.036-.323-3.651-32.459-4.675-48.3l-.88-48.418.5-.009.879,48.407c1.022,15.818,4.636,47.943,4.672,48.266Z" transform="translate(-237.472 -91.71)" fill="#fff"/>
    <path id="Path_292" data-name="Path 292" d="M478.457,181.41a1.331,1.331,0,1,1-1.331-1.325,1.328,1.328,0,0,1,1.331,1.325" transform="translate(-236.406 -89.934)" fill="#fff"/>
    <path id="Path_293" data-name="Path 293" d="M479.5,204.788a1.331,1.331,0,1,1-1.331-1.325,1.328,1.328,0,0,1,1.331,1.325" transform="translate(-236.922 -101.609)" fill="#fff"/>
    <path id="Path_294" data-name="Path 294" d="M480.423,253.726a1.331,1.331,0,1,1-1.331-1.325,1.328,1.328,0,0,1,1.331,1.325" transform="translate(-237.383 -126.048)" fill="#fff"/>
    <path id="Path_295" data-name="Path 295" d="M480.423,285.133a1.331,1.331,0,1,1-1.331-1.325,1.328,1.328,0,0,1,1.331,1.325" transform="translate(-237.383 -141.733)" fill="#fff"/>
    <path id="Path_296" data-name="Path 296" d="M483.976,317.867a1.331,1.331,0,1,1-1.331-1.325,1.328,1.328,0,0,1,1.331,1.325" transform="translate(-239.148 -158.08)" fill="#fff"/>
    <path id="Path_297" data-name="Path 297" d="M486.849,354.016a1.331,1.331,0,1,1-1.331-1.325,1.328,1.328,0,0,1,1.331,1.325" transform="translate(-240.576 -176.132)" fill="#fff"/>
    <path id="Path_298" data-name="Path 298" d="M297.183,120.5a1.331,1.331,0,1,1-1.331-1.325,1.328,1.328,0,0,1,1.331,1.325" transform="translate(-146.337 -59.515)" fill="#fff"/>
    <line id="Line_1" data-name="Line 1" x2="3.353" transform="translate(96.322 111.49)" fill="#fff"/>
    <rect id="Rectangle_31" data-name="Rectangle 31" width="3.353" height="0.501" transform="translate(96.322 111.24)" fill="#231f20"/>
    <line id="Line_2" data-name="Line 2" x2="3.353" transform="translate(96.322 115.259)" fill="#fff"/>
    <rect id="Rectangle_32" data-name="Rectangle 32" width="3.353" height="0.501" transform="translate(96.322 115.009)" fill="#231f20"/>
    <line id="Line_3" data-name="Line 3" x2="2.688" transform="translate(96.987 118.465)" fill="#fff"/>
    <rect id="Rectangle_33" data-name="Rectangle 33" width="2.688" height="0.501" transform="translate(96.987 118.215)" fill="#231f20"/>
    <line id="Line_4" data-name="Line 4" x2="3.019" transform="translate(197.172 113.793)" fill="#fff"/>
    <rect id="Rectangle_34" data-name="Rectangle 34" width="3.019" height="0.501" transform="translate(197.172 113.543)" fill="#231f20"/>
    <line id="Line_5" data-name="Line 5" x2="3.019" transform="translate(197.172 117.353)" fill="#fff"/>
    <rect id="Rectangle_35" data-name="Rectangle 35" width="3.019" height="0.501" transform="translate(197.172 117.102)" fill="#231f20"/>
    <line id="Line_6" data-name="Line 6" x2="2.572" y2="0.438" transform="translate(197.172 121.024)" fill="#fff"/>
    <path id="Path_385" data-name="Path 385" d="M0,0H.5l0,2.609H0Z" transform="translate(197.13 121.271) rotate(-80.285)" fill="#231f20"/>
    <path id="Path_299" data-name="Path 299" d="M38.415,383.488c-2.935,2.633-11.584,2.633-14.518,0-3.162-2.836-5.232-10.561-5.886-18.551a65.482,65.482,0,0,1-.21-6.679c.125-5.889,1.113-11.188,3.107-13.888,3.449-4.672,17.047-4.672,20.5,0,5.363,7.264,3.454,33.338-2.989,39.118" transform="translate(-8.838 -170.227)"/>
    <path id="Path_300" data-name="Path 300" d="M45.4,374.933a.926.926,0,1,1-.926-.921.924.924,0,0,1,.926.921" transform="translate(-21.638 -186.78)" fill="#fff"/>
    <path id="Path_301" data-name="Path 301" d="M25.383,374.2a.926.926,0,1,1-.926-.921.924.924,0,0,1,.926.921" transform="translate(-11.692 -186.411)" fill="#fff"/>
    <path id="Path_302" data-name="Path 302" d="M177.67,451.184c0,7.653,3.675,39.794-2.277,43.016-10.363,5.61-5.517-28.645-21.962-43.016-5.6-4.89,5.426-13.858,12.119-13.858s12.12,6.2,12.12,13.858" transform="translate(-75.472 -218.399)"/>
    <path id="Path_303" data-name="Path 303" d="M32.96,504.512H24.9l-7.115-48.165,14.551,6.378Z" transform="translate(-8.838 -227.898)"/>
    <path id="Path_304" data-name="Path 304" d="M74.138,501.642h-7.2l-2.8-51.042,16.842,4.719Z" transform="translate(-31.872 -225.028)"/>
    <path id="Path_305" data-name="Path 305" d="M173.781,393.6s17.717-15.048,9.507-32.028c0,0,27.167,22.84-4.573,34.038s-4.934-2.009-4.934-2.009" transform="translate(-81.091 -180.568)"/>
    <path id="Path_306" data-name="Path 306" d="M53.327,338.215c-.1.978.046,2.885-.382,3.514,0,0,2.6.583,2.517.068a6,6,0,0,0-2.135-3.582" transform="translate(-26.307 -168.903)"/>
    <path id="Path_307" data-name="Path 307" d="M58.819,339.508c-1.093,1.276-3.609,2.347-3.776,3.586,0,0-2.647-1.311-1.993-1.754a10.427,10.427,0,0,1,5.769-1.832" transform="translate(-26.307 -169.548)"/>
    <path id="Path_308" data-name="Path 308" d="M174.044,416.311c-.232.953-.919,2.737-.811,3.432,0,0-2-.027-1.786-.5a6.476,6.476,0,0,1,2.6-2.933" transform="translate(-85.178 -207.904)"/>
    <path id="Path_309" data-name="Path 309" d="M168.577,415.089c.374,1.46,1.81,3.042,1.546,4.26,0,0,2.259-.656,1.936-1.224a6.226,6.226,0,0,0-3.482-3.036" transform="translate(-83.76 -207.294)"/>
    <path id="Path_310" data-name="Path 310" d="M16.043,421.815c.884.434,2.483,1.49,3.188,1.537,0,0-.464,1.938-.879,1.624a6.455,6.455,0,0,1-2.309-3.162" transform="translate(-7.971 -210.653)"/>
    <path id="Path_311" data-name="Path 311" d="M13.092,426.679c1.513-.045,3.379-1.092,4.516-.57,0,0-.15-2.336-.778-2.147a6.224,6.224,0,0,0-3.738,2.717" transform="translate(-6.505 -211.719)"/>
    <path id="Path_312" data-name="Path 312" d="M14.736,430.144c1.261-.833,2.288-2.7,3.53-2.858,0,0-1.368-1.9-1.8-1.414a6.178,6.178,0,0,0-1.73,4.273" transform="translate(-7.319 -212.638)"/>
    <path id="Path_313" data-name="Path 313" d="M20.81,411.592s13.769,7.12,26.73-3.355l3.125,2.859s-10.136,11.483-31.176,5.026Z" transform="translate(-9.683 -203.871)" fill="#f50"/>
    <path id="Path_314" data-name="Path 314" d="M61.361,345.729c.5-1.1,2.856-1.7,3.778-1.287,5.827,2.589,8.373,13.279,9.271,19.926s-5.148,6.683-4.964,13.019c.124,4.277-8.449,1.381-5.389-8.341,1.2-3.819-.048-8.379-1.311-12.618" transform="translate(-30.488 -171.948)"/>
    <path id="Path_315" data-name="Path 315" d="M67.528,379.314a3.806,3.806,0,0,1-2.4-1.017c-.838-.726-3.427-3.563-1.535-9.572,1.141-3.623.03-7.967-1.312-12.472l.483-.143c1.365,4.583,2.493,9.007,1.31,12.764-1.8,5.719.6,8.369,1.385,9.045a2.755,2.755,0,0,0,2.753.752,1.5,1.5,0,0,0,.758-1.524c-.09-3.135,1.3-4.776,2.641-6.362,1.429-1.687,2.778-3.282,2.325-6.63-.678-5.015-2.926-16.977-9.125-19.731-.781-.351-3,.176-3.446,1.161l-.459-.206c.575-1.267,3.106-1.86,4.11-1.413,6.43,2.857,8.728,15.023,9.418,20.122.483,3.568-1,5.323-2.439,7.019-1.342,1.585-2.609,3.082-2.524,6.026a1.968,1.968,0,0,1-1.046,1.99,2.09,2.09,0,0,1-.9.19" transform="translate(-30.262 -171.701)" fill="#fff"/>
    <path id="Path_316" data-name="Path 316" d="M34.379,389.8a9.173,9.173,0,0,1-3.649,2.09c-.747.519-5.8,1.118-8.839.969s-5.708-1.724-6.079-3.43a6.258,6.258,0,0,1,1.734-6.3s-.274-4.17-.14-5.68" transform="translate(-7.74 -188.495)"/>
    <path id="Path_317" data-name="Path 317" d="M22.669,393.111c-.366,0-.715-.008-1.041-.024-3.078-.151-5.91-1.778-6.313-3.626a6.449,6.449,0,0,1,1.722-6.447c-.043-.675-.256-4.217-.133-5.612l.5.044c-.13,1.474.138,5.6.14,5.642l.007.106-.072.08a6.029,6.029,0,0,0-1.674,6.08c.353,1.615,3.029,3.1,5.846,3.233,3.162.155,8.068-.5,8.683-.925l.089-.039a9.047,9.047,0,0,0,3.537-2.032l.334.374a9.531,9.531,0,0,1-3.715,2.135c-.855.512-4.926,1.01-7.91,1.01" transform="translate(-7.489 -188.474)" fill="#fff"/>
    <path id="Path_318" data-name="Path 318" d="M21.648,394.632c.372,1.362-.717,5.292-4.068,4.582" transform="translate(-8.735 -197.078)"/>
    <path id="Path_319" data-name="Path 319" d="M18.3,399.484a4,4,0,0,1-.828-.09l.105-.49a2.71,2.71,0,0,0,2.691-.775,4.36,4.36,0,0,0,1.082-3.5l.486-.131a4.858,4.858,0,0,1-1.2,3.971,3.133,3.133,0,0,1-2.334,1.011" transform="translate(-8.683 -197.013)" fill="#fff"/>
    <path id="Path_320" data-name="Path 320" d="M28.126,393.8s.343,5.626,4.186,5.538c0,0,2.152-.135,2.131-1.7" transform="translate(-13.975 -196.664)"/>
    <path id="Path_321" data-name="Path 321" d="M31.983,399.577c-3.959,0-4.353-5.715-4.356-5.773l.5-.031c0,.054.368,5.3,3.848,5.3h.081c.068,0,1.9-.14,1.886-1.45l.5-.007c.019,1.429-1.54,1.905-2.367,1.957h-.1" transform="translate(-13.727 -196.649)" fill="#fff"/>
    <path id="Path_322" data-name="Path 322" d="M26.14,392.155c0,1.77-5.126,1.77-5.126,0s1.148-3.205,2.563-3.205,2.563,1.435,2.563,3.205" transform="translate(-10.441 -194.24)" fill="#fff"/>
    <path id="Path_323" data-name="Path 323" d="M605.033,530.665H576.112s-6.865-14.335,1.938-19.514c9.962-5.861,19.071-6.974,27.43-2.329,9.05,5.03-.447,21.843-.447,21.843" transform="translate(-284.984 -252.665)"/>
    <path id="Path_324" data-name="Path 324" d="M628.714,550.457a4.909,4.909,0,0,1,9.817,0" transform="translate(-312.386 -272.457)"/>
    <path id="Path_325" data-name="Path 325" d="M625.179,546.018a4.673,4.673,0,0,1,4.685,4.661" transform="translate(-310.63 -272.679)"/>
    <path id="Path_326" data-name="Path 326" d="M630.116,550.429h-.5a4.428,4.428,0,0,0-4.434-4.411v-.5a4.93,4.93,0,0,1,4.937,4.912" transform="translate(-310.63 -272.429)" fill="#fff"/>
    <path id="Path_327" data-name="Path 327" d="M599.867,542.068h-.5a6.816,6.816,0,0,0-6.826-6.791.3.3,0,0,1-.291-.173c-.093-.21.059-.375.424-.773.908-.99,2.8-3.05,1.013-5.241l.391-.315c2.056,2.526-.108,4.886-1.032,5.894l-.108.119a7.316,7.316,0,0,1,6.932,7.281" transform="translate(-294.254 -264.068)" fill="#fff"/>
    <path id="Path_328" data-name="Path 328" d="M647.637,486.678c.682-1.389,6.043-1.437,6.043-1.437l-1.6,5.635-2.456.148s-2.517-3.273-1.99-4.346" transform="translate(-321.753 -242.327)"/>
    <path id="Path_329" data-name="Path 329" d="M623.218,497.184a1.706,1.706,0,0,0,.843-1.638,8.548,8.548,0,0,1,17.1,0c0,2.439-.582,3.494-2.8,5.629-1.827,1.754-3.894,3.437-4.331,6.915" transform="translate(-309.656 -243.226)"/>
    <path id="Path_330" data-name="Path 330" d="M633.623,485.741c.373-1.833-6.7-3.393-6.7-3.393l.6,6.855" transform="translate(-311.496 -240.883)"/>
    <path id="Path_331" data-name="Path 331" d="M641.13,499.176a.926.926,0,1,1-.926-.921.924.924,0,0,1,.926.921" transform="translate(-317.636 -248.826)" fill="#fff"/>
    <path id="Path_332" data-name="Path 332" d="M654.3,499.176a.926.926,0,1,1-.926-.921.924.924,0,0,1,.926.921" transform="translate(-324.181 -248.826)" fill="#fff"/>
    <path id="Path_333" data-name="Path 333" d="M651.816,506.709l-.246-.436c.176-.1,4.333-2.38,8.173-.489l-.223.449c-3.6-1.775-7.663.453-7.7.476" transform="translate(-323.743 -252.213)"/>
    <path id="Path_334" data-name="Path 334" d="M655.673,509.246c-2.158-.931-6.409-.8-6.45-.8l-.018-.5c.179-.007,4.406-.138,6.668.836Z" transform="translate(-322.568 -253.663)"/>
    <path id="Path_335" data-name="Path 335" d="M655.227,512.764c-1.7-1.62-5.978-1.784-6.021-1.785l.017-.5c.184.006,4.515.171,6.352,1.923Z" transform="translate(-322.568 -254.931)"/>
    <path id="Path_336" data-name="Path 336" d="M582.856,511.464c.155.968.214,2.877.583,3.477,0,0-1.857.744-1.841.225a6.441,6.441,0,0,1,1.258-3.7" transform="translate(-288.976 -255.423)"/>
    <path id="Path_337" data-name="Path 337" d="M576.2,513.422c.912,1.2,2.85,2.111,3.079,3.336,0,0,1.829-1.472,1.311-1.873a6.252,6.252,0,0,0-4.39-1.463" transform="translate(-286.296 -256.39)"/>
    <path id="Path_338" data-name="Path 338" d="M645.375,483.572c-.3.935-1.1,2.669-1.043,3.369,0,0-1.995-.162-1.747-.618a6.479,6.479,0,0,1,2.79-2.751" transform="translate(-319.268 -241.494)"/>
    <path id="Path_339" data-name="Path 339" d="M640.206,481.808c.274,1.481,1.6,3.157,1.253,4.354,0,0,2.3-.5,2.015-1.091a6.219,6.219,0,0,0-3.267-3.263" transform="translate(-318.096 -240.613)"/>
    <path id="Path_340" data-name="Path 340" d="M638.266,506.948c-.05-.018-4.995-1.865-7.264-.395l-.274-.42c2.482-1.607,7.505.266,7.717.347Z" transform="translate(-313.387 -252.437)" fill="#fff"/>
    <path id="Path_341" data-name="Path 341" d="M636.337,510.531l-.495-.09c.252-1.376,3.746-1.647,4.144-1.673l.033.5c-1.451.1-3.552.553-3.682,1.264" transform="translate(-315.928 -254.077)" fill="#fff"/>
    <path id="Path_342" data-name="Path 342" d="M622.928,505.549s1.718,6.055,11.816,7.834a4.311,4.311,0,0,0-1.139,2.336,39.258,39.258,0,0,1-6.857-3.324c-3.122-1.977-5.773-4.657-5.571-6.139Z" transform="translate(-308.636 -252.469)" fill="#f50"/>
    <path id="Path_343" data-name="Path 343" d="M457.864,61.018s1.865-1.147,2.425-.788c3.713,2.382,7.357,5.522,7.291,8.659-.076,3.61,1.68,22.61-.762,27.95s-1.406,10.828.762,11.569,4.994,2.4,8.388-1.817,2.208-5.376,1.087-6.3-1.772-9.933-1.772-16.747-2.6-20.973-3.256-24.455-5.544-11.358-13.117-7.359c0,0-11.069-9.662-18.512,0s-5.164,13.994-5.164,13.994A64.229,64.229,0,0,0,433.7,81.635c.375,6.106,3.228,11.344,3.16,12.541-.149,2.663-3.928,3.395-4.563,4.662s.331,5.251,2.447,6.3,5.861,3.33,7.163.631,2.788-9.066,1.638-10.481-4.172-17-3.149-22.04c.886-4.363,6.166-16.239,14.272-15.407,1.25.128,3.193,3.177,3.193,3.177" transform="translate(-214.699 -23.688)"/>
    <path id="Path_344" data-name="Path 344" d="M251.088,285.306a9.486,9.486,0,0,0,7.894-2.409" transform="translate(-124.757 -141.278)" fill="#fff"/>
    <path id="Path_345" data-name="Path 345" d="M252.455,285.5a7.336,7.336,0,0,1-1.476-.131l.109-.489a9.321,9.321,0,0,0,7.671-2.351l.338.371a9.817,9.817,0,0,1-6.641,2.6" transform="translate(-124.703 -141.093)"/>
    <path id="Path_346" data-name="Path 346" d="M336.3,290.427s-5.965-1.439-6.636-4.26" transform="translate(-163.8 -142.911)" fill="#fff"/>
    <path id="Path_347" data-name="Path 347" d="M336,290.613c-.25-.061-6.123-1.509-6.821-4.446l.49-.115c.628,2.641,6.392,4.06,6.45,4.074Z" transform="translate(-163.558 -142.853)"/>
    <path id="Path_348" data-name="Path 348" d="M295.489,268.464l-51.364-1.317a.493.493,0,0,1-.471-.356l-1.293-4.951a.477.477,0,0,1,.5-.579l54.312,2a.471.471,0,0,1,.449.627l-1.654,4.272a.5.5,0,0,1-.482.308" transform="translate(-120.413 -130.472)" fill="#f50"/>
    <path id="Path_349" data-name="Path 349" d="M476.359,228.751l-33.3,1.055a.6.6,0,0,0-.564.471l-.758,3.588a.594.594,0,0,0,.61.714l35.012-1.592a.593.593,0,0,0,.541-.768l-.956-3.052a.6.6,0,0,0-.588-.416" transform="translate(-219.479 -114.237)" fill="#f50"/>
    <path id="Path_350" data-name="Path 350" d="M298.635,268.449h-5.242a1.013,1.013,0,0,1-1.016-1.011v-5.215a1.013,1.013,0,0,1,1.016-1.011h5.242a1.013,1.013,0,0,1,1.016,1.011v5.215a1.013,1.013,0,0,1-1.016,1.011" transform="translate(-145.273 -130.448)"/>
    <path id="Path_351" data-name="Path 351" d="M39.711,429.409H34.47a1.013,1.013,0,0,1-1.016-1.011v-5.215a1.013,1.013,0,0,1,1.016-1.011h5.242a1.013,1.013,0,0,1,1.016,1.011V428.4a1.013,1.013,0,0,1-1.016,1.011" transform="translate(-16.622 -210.831)" fill="#fff"/>
    <path id="Path_352" data-name="Path 352" d="M638.354,524.1l-1.156-.51a1.009,1.009,0,0,1-.517-1.334l.512-1.149a1.018,1.018,0,0,1,1.34-.515l1.156.51a1.009,1.009,0,0,1,.517,1.334l-.512,1.149a1.018,1.018,0,0,1-1.34.515" transform="translate(-316.302 -259.938)" fill="#fff"/>
    <path id="Path_353" data-name="Path 353" d="M478.513,234.43h-5.242a1.013,1.013,0,0,1-1.016-1.011V228.2a1.013,1.013,0,0,1,1.016-1.011h5.242a1.013,1.013,0,0,1,1.016,1.011v5.216a1.013,1.013,0,0,1-1.016,1.011" transform="translate(-234.648 -113.459)" fill="#fff"/>
    <rect id="Rectangle_37" data-name="Rectangle 37" width="10.45" height="0.501" transform="translate(163.112 85.731)" fill="#fff"/>
  </g>
</svg>
