<svg xmlns="http://www.w3.org/2000/svg" width="32" height="24" viewBox="0 0 32 24">
  <path id="Union_1" data-name="Union 1" d="M15.087,20.444,6.63,11.855l9.191-9.333h-1.3V0h7.607V2.519h-2.8l-9.194,9.336,6.7,6.808a9.384,9.384,0,0,0,13.4,0L32,20.444a11.832,11.832,0,0,1-16.913,0ZM0,23.475V20.954H2.561V2.522H0V0H7.607V2.522H5.044V20.954H7.607v2.521Zm17.978-11.62a5.566,5.566,0,1,1,5.565,5.652A5.616,5.616,0,0,1,17.978,11.855Zm5.565-3.127A3.134,3.134,0,1,0,26.63,11.86a3.111,3.111,0,0,0-3.087-3.132Z" fill="#231f20"/>
</svg>
