<svg xmlns="http://www.w3.org/2000/svg" viewBox="0 0 331.71 245"><defs><style>.cls-1{fill:#231f20;}</style></defs><g id="Layer_2" data-name="Layer 2"><g id="title"><path class="cls-1" d="M313.51,190.49a98.34,98.34,0,0,1-138.92,0L105.12,121l95.3-95.29h29V0H150.57V25.74H164L68.73,121l87.66,87.66a124,124,0,0,0,175.32,0Z"/><polygon class="cls-1" points="52.29 25.74 78.85 25.74 78.85 0 0 0 0 25.74 26.55 25.74 26.55 213.87 0 213.87 0 239.6 78.85 239.6 78.85 213.87 52.29 213.87 52.29 25.74"/><path class="cls-1" d="M186.36,121a57.69,57.69,0,1,0,57.69-57.69A57.76,57.76,0,0,0,186.36,121Zm57.69-31.95a32,32,0,1,1-32,32A32,32,0,0,1,244.05,89.08Z"/></g></g></svg>